<svg width="131" height="160" viewBox="0 0 131 160" fill="none" xmlns="http://www.w3.org/2000/svg">
<path d="M66.4884 150.791C69.5873 147.828 72.6114 144.971 75.5653 142.189C104.822 114.571 124.15 96.3252 124.15 65.1252C124.15 33.301 98.2642 7.41089 66.44 7.41089C34.6202 7.41089 8.73011 33.301 8.73011 65.1252C8.73011 95.0065 28.3477 113.925 55.495 140.119C59.0642 143.556 62.7257 147.09 66.4884 150.791Z" fill="#42C6B7"/>
<path d="M15.9695 66.3778C15.9695 94.2503 38.5673 116.848 66.4398 116.848C94.3167 116.848 116.915 94.2503 116.915 66.3778C116.915 38.5009 94.3167 15.9031 66.4398 15.9031C38.5673 15.9031 15.9695 38.5009 15.9695 66.3778Z" fill="#008C82"/>
<path d="M22.6818 66.3779C22.6818 90.5449 42.2774 110.136 66.4444 110.136C90.6114 110.136 110.203 90.5449 110.203 66.3779C110.203 42.2108 90.6114 22.6152 66.4444 22.6152C42.2774 22.6152 22.6818 42.2108 22.6818 66.3779Z" fill="#D4DBD9"/>
<path fill-rule="evenodd" clip-rule="evenodd" d="M64.3449 67.2791C64.3449 73.7846 63.3164 78.6462 61.268 81.855C59.2153 85.0682 56.0768 86.6726 51.8526 86.6726C47.7999 86.6726 44.7186 85.0286 42.6043 81.7407C40.4944 78.4528 39.4395 73.6308 39.4395 67.2791C39.4395 60.7209 40.4592 55.8506 42.5032 52.6769C44.5471 49.4989 47.6636 47.9121 51.8526 47.9121C55.9405 47.9121 59.0438 49.5693 61.1625 52.8791C63.2856 56.1934 64.3449 60.9934 64.3449 67.2791ZM43.7647 67.2791C43.7647 72.7561 44.4109 76.7429 45.6988 79.2396C46.9867 81.7407 49.0351 82.989 51.8526 82.989C54.701 82.989 56.7669 81.7231 58.046 79.1912C59.3252 76.6594 59.9669 72.6857 59.9669 67.2791C59.9669 61.8682 59.3252 57.9077 58.046 55.3934C56.7669 52.8791 54.701 51.6176 51.8526 51.6176C49.0351 51.6176 46.9867 52.8616 45.6988 55.3407C44.4109 57.8242 43.7647 61.8022 43.7647 67.2791Z" fill="black"/>
<path fill-rule="evenodd" clip-rule="evenodd" d="M94.3449 67.2791C94.3449 73.7846 93.3164 78.6462 91.268 81.855C89.2153 85.0682 86.0768 86.6726 81.8526 86.6726C77.7999 86.6726 74.7186 85.0286 72.6043 81.7407C70.4944 78.4528 69.4395 73.6308 69.4395 67.2791C69.4395 60.7209 70.4592 55.8506 72.5032 52.6769C74.5471 49.4989 77.6636 47.9121 81.8526 47.9121C85.9405 47.9121 89.0438 49.5693 91.1625 52.8791C93.2856 56.1934 94.3449 60.9934 94.3449 67.2791ZM73.7647 67.2791C73.7647 72.7561 74.4109 76.7429 75.6988 79.2396C76.9867 81.7407 79.0351 82.989 81.8526 82.989C84.701 82.989 86.7669 81.7231 88.046 79.1912C89.3252 76.6594 89.9669 72.6857 89.9669 67.2791C89.9669 61.8682 89.3252 57.9077 88.046 55.3934C86.7669 52.8791 84.701 51.6176 81.8526 51.6176C79.0351 51.6176 76.9867 52.8616 75.6988 55.3407C74.4109 57.8242 73.7647 61.8022 73.7647 67.2791Z" fill="black"/>
</svg>
