<svg width="131" height="160" viewBox="0 0 131 160" fill="none" xmlns="http://www.w3.org/2000/svg">
<path d="M66.4884 150.791C69.5873 147.828 72.6114 144.971 75.5653 142.189C104.822 114.571 124.15 96.3252 124.15 65.1252C124.15 33.301 98.2642 7.41089 66.44 7.41089C34.6202 7.41089 8.73011 33.301 8.73011 65.1252C8.73011 95.0065 28.3477 113.925 55.495 140.119C59.0642 143.556 62.7257 147.09 66.4884 150.791Z" fill="#42C6B7"/>
<path d="M15.9695 66.3778C15.9695 94.2503 38.5673 116.848 66.4398 116.848C94.3167 116.848 116.915 94.2503 116.915 66.3778C116.915 38.5009 94.3167 15.9031 66.4398 15.9031C38.5673 15.9031 15.9695 38.5009 15.9695 66.3778Z" fill="#008C82"/>
<path d="M22.6818 66.3779C22.6818 90.5449 42.2774 110.136 66.4444 110.136C90.6114 110.136 110.203 90.5449 110.203 66.3779C110.203 42.2108 90.6114 22.6152 66.4444 22.6152C42.2774 22.6152 22.6818 42.2108 22.6818 66.3779Z" fill="#E0E0E0"/>
<path fill-rule="evenodd" clip-rule="evenodd" d="M65.3449 67.2791C65.3449 73.7846 64.3164 78.6462 62.268 81.855C60.2153 85.0682 57.0768 86.6726 52.8526 86.6726C48.7999 86.6726 45.7186 85.0286 43.6043 81.7407C41.4944 78.4528 40.4395 73.6308 40.4395 67.2791C40.4395 60.7209 41.4592 55.8506 43.5032 52.6769C45.5471 49.4989 48.6636 47.9121 52.8526 47.9121C56.9405 47.9121 60.0438 49.5693 62.1625 52.8791C64.2856 56.1934 65.3449 60.9934 65.3449 67.2791ZM44.7647 67.2791C44.7647 72.7561 45.4109 76.7429 46.6988 79.2396C47.9867 81.7407 50.0351 82.989 52.8526 82.989C55.701 82.989 57.7669 81.7231 59.046 79.1912C60.3252 76.6594 60.9669 72.6857 60.9669 67.2791C60.9669 61.8682 60.3252 57.9077 59.046 55.3934C57.7669 52.8791 55.701 51.6176 52.8526 51.6176C50.0351 51.6176 47.9867 52.8616 46.6988 55.3407C45.4109 57.8242 44.7647 61.8022 44.7647 67.2791Z" fill="black"/>
<path d="M86.3866 86.1581H82.2152V59.3186C82.2152 57.09 82.2811 54.9757 82.4218 52.9845C82.0614 53.3449 81.657 53.723 81.2086 54.1186C80.7646 54.5142 78.7207 56.1845 75.0811 59.1383L72.813 56.2021L82.7822 48.501H86.3866V86.1581Z" fill="black"/>
</svg>
