<svg width="131" height="160" viewBox="0 0 131 160" fill="none" xmlns="http://www.w3.org/2000/svg">
<path d="M66.4878 150.787C69.5911 147.828 72.6109 144.971 75.5604 142.189C104.822 114.567 124.149 96.3252 124.149 65.1208C124.149 33.301 98.2637 7.41089 66.4395 7.41089C34.6197 7.41089 8.72964 33.301 8.72964 65.1208C8.72964 95.0065 28.3472 113.925 55.4944 140.114C59.0637 143.556 62.7252 147.09 66.4878 150.787Z" fill="#F4531E"/>
<path d="M15.969 66.3781C15.969 94.2506 38.5624 116.848 66.4393 116.848C94.3162 116.848 116.914 94.2506 116.914 66.3781C116.914 38.5011 94.3162 15.9033 66.4393 15.9033C38.5624 15.9033 15.969 38.5011 15.969 66.3781Z" fill="#AA3C00"/>
<path d="M22.6813 66.3779C22.6813 90.5405 42.2769 110.136 66.4395 110.136C90.6065 110.136 110.198 90.5405 110.198 66.3779C110.198 42.2109 90.6065 22.6152 66.4395 22.6152C42.2769 22.6152 22.6813 42.2109 22.6813 66.3779Z" fill="#E0E0E0"/>
<path fill-rule="evenodd" clip-rule="evenodd" d="M64.2024 69.0726C64.2024 75.5825 63.1782 80.4397 61.1254 83.6529C59.0727 86.8616 55.9386 88.466 51.7144 88.466C47.6617 88.466 44.5804 86.8221 42.4661 83.5342C40.3562 80.2463 39.2969 75.4287 39.2969 69.0726C39.2969 62.5144 40.3211 57.6485 42.365 54.4704C44.409 51.2924 47.521 49.7056 51.7144 49.7056C55.798 49.7056 58.9013 51.3627 61.0244 54.677C63.143 57.9913 64.2024 62.7913 64.2024 69.0726ZM43.6265 69.0726C43.6265 74.5495 44.2683 78.5407 45.5562 81.0374C46.8441 83.5341 48.8969 84.7825 51.7144 84.7825C54.5628 84.7825 56.6287 83.521 57.9079 80.9847C59.187 78.4528 59.8243 74.4836 59.8243 69.0726C59.8243 63.666 59.187 59.7012 57.9079 57.1869C56.6287 54.6726 54.5628 53.4155 51.7144 53.4155C48.8969 53.4155 46.8441 54.655 45.5562 57.1341C44.2683 59.6177 43.6265 63.5957 43.6265 69.0726Z" fill="black"/>
<path fill-rule="evenodd" clip-rule="evenodd" d="M94.1583 66.3693C94.1583 81.1034 88.4572 88.466 77.055 88.466C75.0638 88.466 73.4858 88.2946 72.3166 87.9517V84.2682C73.6924 84.7165 75.2529 84.9407 77.0067 84.9407C81.1254 84.9407 84.2375 83.666 86.343 81.1166C88.444 78.5627 89.5913 74.655 89.7803 69.3847H89.4682C88.5276 70.8089 87.2704 71.8946 85.71 72.6418C84.1495 73.3891 82.3869 73.7627 80.4309 73.7627C77.099 73.7627 74.4528 72.7649 72.4968 70.7737C70.5408 68.7825 69.5605 66.0001 69.5605 62.4309C69.5605 58.5144 70.655 55.4243 72.844 53.1561C75.0331 50.8924 77.9166 49.7583 81.4858 49.7583C84.0441 49.7583 86.2814 50.4133 88.1935 51.7276C90.11 53.0419 91.5825 54.9583 92.6111 57.4726C93.644 59.9869 94.1583 62.9539 94.1583 66.3693ZM81.4858 53.4155C79.0287 53.4155 77.1342 54.2023 75.7935 55.7847C74.4528 57.3627 73.7847 59.5605 73.7847 62.3781C73.7847 64.8484 74.4045 66.7957 75.6397 68.2111C76.8748 69.6265 78.7561 70.3342 81.2792 70.3342C82.844 70.3342 84.2814 70.0177 85.5957 69.3847C86.9056 68.7473 87.9429 67.8814 88.699 66.7825C89.455 65.6836 89.8287 64.5319 89.8287 63.3319C89.8287 61.5253 89.477 59.8638 88.7737 58.3341C88.0704 56.8045 87.0858 55.6045 85.8243 54.7298C84.5627 53.8506 83.1166 53.4155 81.4858 53.4155Z" fill="black"/>
</svg>
