<svg width="131" height="160" viewBox="0 0 131 160" fill="none" xmlns="http://www.w3.org/2000/svg">
<path d="M66.4879 150.791C69.5868 147.829 72.6109 144.971 75.5604 142.189C104.822 114.567 124.149 96.3252 124.149 65.1208C124.149 33.301 98.2593 7.41089 66.4395 7.41089C34.6153 7.41089 8.72963 33.301 8.72963 65.1208C8.72963 95.0065 28.3428 113.93 55.4945 140.119C59.0593 143.556 62.7208 147.09 66.4879 150.791Z" fill="#FF2F6D"/>
<path d="M15.9651 66.3781C15.9651 94.2506 38.5629 116.848 66.4398 116.848C94.3167 116.848 116.915 94.2506 116.915 66.3781C116.915 38.5011 94.3167 15.9033 66.4398 15.9033C38.5629 15.9033 15.9651 38.5011 15.9651 66.3781Z" fill="#B3005A"/>
<path d="M22.6813 66.3779C22.6813 90.5449 42.2769 110.136 66.4395 110.136C90.6065 110.136 110.198 90.5449 110.198 66.3779C110.198 42.2108 90.6065 22.6196 66.4395 22.6196C42.2769 22.6196 22.6813 42.2108 22.6813 66.3779Z" fill="#E0E0E0"/>
<path d="M51.2352 84.2243H47.0638V57.3847C47.0638 55.1561 47.1341 53.0419 47.2704 51.0506C46.91 51.4111 46.5056 51.7891 46.0572 52.1847C45.6133 52.5803 43.5693 54.255 39.9298 57.2045L37.6616 54.2682L47.6308 46.5671H51.2352V84.2243Z" fill="black"/>
<path d="M90.3078 84.2242H65.5562V80.5407L75.4726 70.5714C78.4924 67.5165 80.4836 65.3363 81.4462 64.0308C82.4089 62.7253 83.1298 61.4549 83.6089 60.2198C84.0924 58.9846 84.3298 57.6527 84.3298 56.2286C84.3298 54.2198 83.7232 52.6242 82.5012 51.4505C81.2836 50.2725 79.5913 49.6835 77.4287 49.6835C75.8682 49.6835 74.3869 49.9429 72.9847 50.4571C71.5869 50.9714 70.0309 51.9077 68.3122 53.2659L66.0441 50.356C69.5122 47.4681 73.2924 46.0264 77.3759 46.0264C80.9144 46.0264 83.688 46.9319 85.6968 48.7472C87.7056 50.5582 88.7122 52.989 88.7122 56.0484C88.7122 58.4352 88.0397 60.7956 86.7034 63.1297C85.3627 65.4637 82.8573 68.4176 79.1825 71.9912L70.9408 80.0528V80.255H90.3078V84.2242Z" fill="black"/>
</svg>
