<svg width="131" height="160" viewBox="0 0 131 160" fill="none" xmlns="http://www.w3.org/2000/svg">
<path d="M66.4922 150.791C69.5911 147.829 72.6153 144.971 75.5648 142.189C104.822 114.567 124.154 96.3252 124.154 65.1208C124.154 33.301 98.2637 7.41089 66.4439 7.41089C34.6241 7.41089 8.73402 33.301 8.73402 65.1208C8.73402 95.0065 28.3472 113.93 55.4945 140.119C59.0681 143.556 62.7252 147.09 66.4922 150.791Z" fill="#AF3EA0"/>
<path d="M15.969 66.3781C15.969 94.2506 38.5668 116.848 66.4437 116.848C94.3206 116.848 116.918 94.2506 116.918 66.3781C116.918 38.5011 94.3206 15.9033 66.4437 15.9033C38.5668 15.9033 15.969 38.5011 15.969 66.3781Z" fill="#8C0081"/>
<path d="M22.6857 66.3779C22.6857 90.5449 42.2769 110.136 66.4439 110.136C90.6109 110.136 110.202 90.5449 110.202 66.3779C110.202 42.2108 90.6109 22.6196 66.4439 22.6196C42.2769 22.6196 22.6857 42.2108 22.6857 66.3779Z" fill="#E0E0E0"/>
<path d="M51.3622 88.6638H47.1908V61.8242C47.1908 59.5956 47.2611 57.4813 47.3974 55.4901C47.0369 55.8506 46.6325 56.2286 46.1886 56.6242C45.7402 57.0198 43.6963 58.6945 40.0567 61.644L37.793 58.7077L47.7578 51.0066H51.3622V88.6638Z" fill="black"/>
<path d="M89.0194 59.8683C89.0194 62.2727 88.3469 64.2375 86.9974 65.7672C85.648 67.2968 83.7403 68.3166 81.2656 68.8309V69.0375C84.2897 69.4155 86.5271 70.3782 87.9864 71.921C89.4502 73.4683 90.1798 75.4946 90.1798 78.0001C90.1798 81.587 88.9315 84.3474 86.4436 86.2815C83.9557 88.2111 80.4172 89.1782 75.8326 89.1782C73.8414 89.1782 72.0172 89.0287 70.3601 88.7254C68.7029 88.4265 67.0941 87.899 65.5293 87.143V83.0727C67.1601 83.8815 68.9007 84.4968 70.7469 84.9144C72.593 85.3364 74.3381 85.5474 75.9864 85.5474C82.4919 85.5474 85.7491 82.998 85.7491 77.8991C85.7491 73.332 82.1579 71.0463 74.9798 71.0463H71.2744V67.3628H75.0326C77.9689 67.3628 80.2941 66.7166 82.0128 65.4199C83.7315 64.1232 84.5886 62.3254 84.5886 60.0221C84.5886 58.1847 83.9557 56.743 82.6941 55.6968C81.4326 54.6507 79.7227 54.1232 77.5557 54.1232C75.9073 54.1232 74.3557 54.3474 72.8963 54.7958C71.437 55.2397 69.7711 56.0661 67.8985 57.2661L65.7359 54.3826C67.2831 53.165 69.0634 52.2067 71.0809 51.5122C73.0985 50.8133 75.2216 50.4661 77.4546 50.4661C81.1117 50.4661 83.9556 51.3056 85.9776 52.9804C88.004 54.6507 89.0194 56.9496 89.0194 59.8683Z" fill="black"/>
</svg>
