<svg width="131" height="160" viewBox="0 0 131 160" fill="none" xmlns="http://www.w3.org/2000/svg">
<path d="M66.4884 150.791C69.5917 147.828 72.6114 144.976 75.5653 142.189C104.822 114.571 124.15 96.3252 124.15 65.1252C124.15 33.301 98.2642 7.41528 66.44 7.41528C34.6202 7.41528 8.73013 33.301 8.73013 65.1252C8.73013 95.0065 28.3477 113.93 55.495 140.119C59.0642 143.56 62.7257 147.09 66.4884 150.791Z" fill="#30339B"/>
<path d="M15.9695 66.378C15.9695 94.2505 38.5673 116.848 66.4398 116.848C94.3168 116.848 116.915 94.2505 116.915 66.378C116.915 38.5011 94.3168 15.9033 66.4398 15.9033C38.5673 15.9033 15.9695 38.5011 15.9695 66.378Z" fill="#2F008C"/>
<path d="M22.6818 66.3778C22.6818 90.5449 42.2774 110.136 66.4444 110.136C90.6114 110.136 110.203 90.5449 110.203 66.3778C110.203 42.2108 90.6114 22.6152 66.4444 22.6152C42.2774 22.6152 22.6818 42.2108 22.6818 66.3778Z" fill="#E0E0E0"/>
<path d="M53.5433 88.2902H49.3675V61.4506C49.3675 59.2221 49.4378 57.1078 49.5741 55.1166C49.2137 55.477 48.8093 55.855 48.3653 56.2506C47.917 56.6462 45.873 58.321 42.2335 61.2704L39.9697 58.3342L49.9345 50.6331H53.5433V88.2902Z" fill="black"/>
<path fill-rule="evenodd" clip-rule="evenodd" d="M68.2993 72.1934C68.2993 64.7912 69.7367 59.2571 72.6114 55.5912C75.4905 51.9253 79.7411 50.0923 85.3762 50.0923C87.3147 50.0923 88.8444 50.2593 89.9609 50.5846V54.2681C88.6378 53.8373 87.1257 53.622 85.4246 53.622C81.3894 53.622 78.3081 54.8791 76.1807 57.3978C74.0532 59.9121 72.8839 63.8637 72.6773 69.2571H72.985C74.8752 66.3033 77.8642 64.8263 81.9477 64.8263C85.3323 64.8263 87.996 65.8461 89.9477 67.8901C91.8949 69.934 92.8707 72.7077 92.8707 76.2109C92.8707 80.123 91.8026 83.2044 89.6619 85.4417C87.5257 87.6835 84.6378 88.8043 80.9982 88.8043C77.0993 88.8043 74.0092 87.3406 71.7235 84.4131C69.4422 81.4857 68.2993 77.411 68.2993 72.1934ZM80.9455 85.1736C83.385 85.1736 85.2752 84.4044 86.6246 82.8659C87.9741 81.3318 88.6466 79.112 88.6466 76.2109C88.6466 73.7186 88.018 71.7626 86.7652 70.3384C85.5125 68.9143 83.64 68.2022 81.1521 68.2022C79.6048 68.2022 78.1895 68.5186 76.9015 69.1516C75.6136 69.789 74.5895 70.6637 73.8246 71.7802C73.0598 72.8967 72.6773 74.0571 72.6773 75.2571C72.6773 77.0241 73.0202 78.6725 73.7059 80.2022C74.396 81.7318 75.3675 82.9406 76.629 83.8329C77.8949 84.7252 79.3323 85.1736 80.9455 85.1736Z" fill="black"/>
</svg>
