<svg width="131" height="160" viewBox="0 0 131 160" fill="none" xmlns="http://www.w3.org/2000/svg">
<path d="M66.4899 150.793C69.5888 147.831 72.6129 144.978 75.5623 142.191C104.824 114.574 124.151 96.3274 124.151 65.1274C124.151 33.3076 98.2656 7.41748 66.4415 7.41748C34.6173 7.41748 8.7316 33.3076 8.7316 65.1274C8.7316 95.0087 28.3492 113.932 55.4964 140.121C59.0657 143.563 62.7272 147.092 66.4899 150.793Z" fill="#2494CE"/>
<path d="M15.9709 66.3802C15.9709 94.2527 38.5643 116.851 66.4413 116.851C94.3182 116.851 116.916 94.2527 116.916 66.3802C116.916 38.5033 94.3182 15.9055 66.4413 15.9055C38.5643 15.9055 15.9709 38.5033 15.9709 66.3802Z" fill="#005A82"/>
<path d="M22.6788 66.38C22.6788 90.5471 42.2744 110.138 66.4414 110.138C90.6085 110.138 110.2 90.5471 110.2 66.38C110.2 42.213 90.6085 22.6174 66.4414 22.6174C42.2744 22.6174 22.6788 42.213 22.6788 66.38Z" fill="#E0E0E0"/>
<path d="M52.3959 88.4835H48.2244V61.6484C48.2244 59.4154 48.2948 57.3011 48.431 55.3099C48.0706 55.6703 47.6662 56.0484 47.2223 56.444C46.7739 56.8396 44.7299 58.5143 41.0904 61.4682L38.8223 58.5319L48.7915 50.8308H52.3959V88.4835Z" fill="black"/>
<path fill-rule="evenodd" clip-rule="evenodd" d="M91.4684 66.9012C91.4684 81.6353 85.7673 88.9979 74.3651 88.9979C72.3739 88.9979 70.7959 88.8265 69.6267 88.4836V84.8001C71.0025 85.2485 72.5629 85.4727 74.3168 85.4727C78.4355 85.4727 81.5476 84.1979 83.653 81.6485C85.7541 79.0947 86.9014 75.1869 87.0904 69.9166H86.7827C85.8377 71.3408 84.5849 72.4265 83.0201 73.1738C81.4596 73.921 79.697 74.2947 77.7409 74.2947C74.4091 74.2947 71.7673 73.2968 69.8069 71.3056C67.8508 69.3144 66.8706 66.532 66.8706 62.9628C66.8706 59.0463 67.9651 55.9562 70.1541 53.6881C72.3431 51.4243 75.2267 50.2903 78.7959 50.2903C81.3541 50.2903 83.5915 50.9452 85.508 52.2595C87.4201 53.5738 88.8926 55.4902 89.9212 58.0045C90.9542 60.5188 91.4684 63.4858 91.4684 66.9012ZM78.7959 53.9474C76.3431 53.9474 74.4443 54.7342 73.1036 56.3166C71.7673 57.8947 71.0948 60.0925 71.0948 62.91C71.0948 65.3804 71.7145 67.3276 72.9497 68.743C74.1849 70.1584 76.0662 70.8661 78.5893 70.8661C80.1541 70.8661 81.5915 70.5496 82.9058 69.9166C84.22 69.2792 85.253 68.4133 86.0091 67.3144C86.7651 66.2155 87.1431 65.0639 87.1431 63.8639C87.1431 62.0573 86.7915 60.3957 86.0838 58.8661C85.3805 57.3364 84.4003 56.1364 83.1387 55.2617C81.8728 54.3826 80.4267 53.9474 78.7959 53.9474Z" fill="black"/>
</svg>
