<svg width="131" height="160" viewBox="0 0 131 160" fill="none" xmlns="http://www.w3.org/2000/svg">
<path d="M66.4854 150.793C69.5843 147.831 72.6085 144.978 75.5579 142.191C104.819 114.574 124.147 96.3274 124.147 65.1274C124.147 33.3076 98.2612 7.41748 66.4371 7.41748C34.6129 7.41748 8.7272 33.3076 8.7272 65.1274C8.7272 95.0087 28.3448 113.932 55.492 140.121C59.0613 143.563 62.7228 147.092 66.4854 150.793Z" fill="#3FD7CE"/>
<path d="M15.9666 66.3802C15.9666 94.2527 38.5643 116.851 66.4369 116.851C94.3138 116.851 116.912 94.2527 116.912 66.3802C116.912 38.5033 94.3138 15.9055 66.4369 15.9055C38.5643 15.9055 15.9666 38.5033 15.9666 66.3802Z" fill="#027B8C" fill-opacity="0.67"/>
<path d="M22.6783 66.38C22.6783 90.5471 42.2739 110.138 66.4366 110.138C90.6036 110.138 110.199 90.5471 110.199 66.38C110.199 42.213 90.6036 22.6174 66.4366 22.6174C42.2739 22.6174 22.6783 42.213 22.6783 66.38Z" fill="#E0E0E0"/>
<path d="M65.7976 85.9162H41.0459V82.2327L50.9624 72.2635C53.9822 69.2086 55.9734 67.0284 56.936 65.7229C57.8986 64.4174 58.6195 63.147 59.0987 61.9119C59.5822 60.6767 59.8195 59.3449 59.8195 57.9207C59.8195 55.9119 59.2129 54.3163 57.991 53.1427C56.7734 51.9646 55.0811 51.3756 52.9184 51.3756C51.3536 51.3756 49.8767 51.635 48.4745 52.1493C47.0767 52.6635 45.5162 53.5998 43.8019 54.9581L41.5338 52.0482C45.0019 49.1603 48.7778 47.7185 52.8657 47.7185C56.4041 47.7185 59.1778 48.624 61.1866 50.435C63.1954 52.2503 64.1976 54.6811 64.1976 57.7404C64.1976 60.1273 63.5294 62.4877 62.1887 64.8218C60.8525 67.1558 58.3426 70.1097 54.6679 73.6789L46.4261 81.7404V81.9471H65.7976V85.9162Z" fill="black"/>
<path d="M87.4506 85.3976H83.2747V58.5581C83.2747 56.3251 83.3451 54.2152 83.4813 52.224C83.1209 52.5844 82.7165 52.9624 82.2725 53.358C81.8242 53.7536 79.7803 55.424 76.1407 58.3778L73.877 55.4415L83.8418 47.7405H87.4506V85.3976Z" fill="black"/>
</svg>
