<svg width="131" height="160" viewBox="0 0 131 160" fill="none" xmlns="http://www.w3.org/2000/svg">
  <g clip-path="url(#clip0_2:1368)">
    <path d="M1.81123 64.5758C1.81123 103.011 30.5101 124.382 66.4398 160.079C103.205 124.651 131.068 103.662 131.068 64.5758C131.068 28.8791 102.132 -0.0527344 66.4398 -0.0527344C30.7431 -0.0527344 1.81123 28.8791 1.81123 64.5758Z" fill="url(#paint0_linear_2:1368)" />
    <path d="M66.4879 150.791C69.5868 147.828 72.6109 144.971 75.5604 142.189C104.822 114.571 124.149 96.3252 124.149 65.1252C124.149 33.301 98.2593 7.41089 66.4395 7.41089C34.6153 7.41089 8.72964 33.301 8.72964 65.1252C8.72964 95.0065 28.3428 113.925 55.4945 140.119C59.0593 143.556 62.7208 147.09 66.4879 150.791Z" fill="url(#paint1_linear_2:1368)" />
    <path d="M66.4879 150.791C69.5868 147.828 72.6109 144.971 75.5604 142.189C104.822 114.571 124.149 96.3252 124.149 65.1252C124.149 33.301 98.2593 7.41089 66.4395 7.41089C34.6153 7.41089 8.72964 33.301 8.72964 65.1252C8.72964 95.0065 28.3428 113.925 55.4945 140.119C59.0593 143.556 62.7208 147.09 66.4879 150.791Z" fill="url(#paint2_linear_2:1368)" />
    <path d="M15.9651 66.378C15.9651 94.2506 38.5629 116.848 66.4398 116.848C94.3167 116.848 116.91 94.2506 116.91 66.378C116.91 38.5011 94.3167 15.9033 66.4398 15.9033C38.5629 15.9033 15.9651 38.5011 15.9651 66.378Z" fill="#008C5A" />
    <path d="M22.6774 66.3781C22.6774 90.5452 42.273 110.136 66.44 110.136C90.607 110.136 110.198 90.5452 110.198 66.3781C110.198 42.2111 90.607 22.6155 66.44 22.6155C42.273 22.6155 22.6774 42.2111 22.6774 66.3781Z" fill="url(#paint3_radial_2:1368)" />
    <path fill-rule="evenodd" clip-rule="evenodd" d="M64.0266 67.2791C64.0266 73.7846 63.0024 78.6462 60.9497 81.855C58.8969 85.0682 55.7585 86.6726 51.5343 86.6726C47.4815 86.6726 44.4002 85.0286 42.2903 81.7407C40.176 78.4528 39.1211 73.6308 39.1211 67.2791C39.1211 60.7209 40.1409 55.8506 42.1848 52.6769C44.2288 49.4989 47.3453 47.9121 51.5343 47.9121C55.6222 47.9121 58.7255 49.5693 60.8442 52.8792C62.9672 56.1934 64.0266 60.9934 64.0266 67.2791ZM43.4464 67.2791C43.4464 72.7561 44.0925 76.7429 45.3804 79.2396C46.6683 81.7407 48.7211 82.989 51.5343 82.989C54.387 82.989 56.4486 81.7231 57.7321 79.1912C59.0068 76.6594 59.6486 72.6857 59.6486 67.2791C59.6486 61.8682 59.0068 57.9077 57.7321 55.3934C56.4486 52.8792 54.387 51.6176 51.5343 51.6176C48.7211 51.6176 46.6683 52.8616 45.3804 55.3407C44.0925 57.8242 43.4464 61.8022 43.4464 67.2791Z" fill="black" />
    <path d="M93.9826 86.1583H69.231V82.4747L79.1474 72.5055C82.1672 69.4506 84.1584 67.2703 85.1211 65.9648C86.0837 64.6593 86.8046 63.389 87.2837 62.1538C87.7628 60.9187 88.0046 59.5868 88.0046 58.1626C88.0046 56.1539 87.398 54.5583 86.176 53.3846C84.9584 52.2066 83.2661 51.6176 81.1035 51.6176C79.5387 51.6176 78.0617 51.8769 76.6595 52.3912C75.2617 52.9055 73.7013 53.8418 71.987 55.2L69.7189 52.2901C73.187 49.4022 76.9628 47.9604 81.0507 47.9604C84.5892 47.9604 87.3628 48.8659 89.3716 50.6769C91.3804 52.4923 92.3826 54.9231 92.3826 57.9824C92.3826 60.3692 91.7145 62.7297 90.3738 65.0637C89.0376 67.3978 86.5277 70.3516 82.8529 73.9253L74.6112 81.9868V82.189H93.9826V86.1583Z" fill="black" />
  </g>
  <defs>
    <linearGradient id="paint0_linear_2:1368" x1="0.0516775" y1="4.07122" x2="0.0516775" y2="160.489" gradientUnits="userSpaceOnUse">
      <stop stop-color="#C9EBDC" />
      <stop offset="0.388" stop-color="#64C67D" />
      <stop offset="1" stop-color="#2CA86F" />
    </linearGradient>
    <linearGradient id="paint1_linear_2:1368" x1="124.149" y1="5.65484" x2="8.72876" y2="5.65484" gradientUnits="userSpaceOnUse">
      <stop stop-color="#47BC5B" />
      <stop offset="0.43" stop-color="#54BF5C" />
      <stop offset="1" stop-color="#47BC5B" />
    </linearGradient>
    <linearGradient id="paint2_linear_2:1368" x1="124.149" y1="5.65484" x2="8.72876" y2="5.65484" gradientUnits="userSpaceOnUse">
      <stop stop-color="#46BE6F" />
      <stop offset="0.436" stop-color="#5DC477" />
      <stop offset="1" stop-color="#46BE6F" />
    </linearGradient>
    <radialGradient id="paint3_radial_2:1368" cx="0" cy="0" r="1" gradientUnits="userSpaceOnUse" gradientTransform="translate(66.8374 32.0476) rotate(90) scale(75.9859)">
      <stop stop-color="#F7F9F9" />
      <stop offset="1" stop-color="#B6BFBD" />
    </radialGradient>
    <clipPath id="clip0_2:1368">
      <rect width="130.989" height="160" fill="white" />
    </clipPath>
  </defs>
</svg>