<svg width="131" height="160" viewBox="0 0 131 160" fill="none" xmlns="http://www.w3.org/2000/svg">
  <g clip-path="url(#clip0_2:1378)">
    <path d="M1.81122 64.5758C1.81122 103.011 30.5101 124.382 66.4398 160.079C103.205 124.651 131.068 103.662 131.068 64.5758C131.068 28.8791 102.132 -0.0527344 66.4398 -0.0527344C30.7431 -0.0527344 1.81122 28.8791 1.81122 64.5758Z" fill="url(#paint0_linear_2:1378)" />
    <path d="M66.4879 150.791C69.5868 147.828 72.611 144.971 75.5604 142.189C104.822 114.571 124.149 96.3252 124.149 65.1252C124.149 33.301 98.2593 7.41089 66.4395 7.41089C34.6154 7.41089 8.72963 33.301 8.72963 65.1252C8.72963 95.0065 28.3428 113.925 55.4901 140.119C59.0593 143.556 62.7208 147.09 66.4879 150.791Z" fill="url(#paint1_linear_2:1378)" />
    <path d="M66.4879 150.791C69.5868 147.828 72.611 144.971 75.5604 142.189C104.822 114.571 124.149 96.3252 124.149 65.1252C124.149 33.301 98.2593 7.41089 66.4395 7.41089C34.6154 7.41089 8.72963 33.301 8.72963 65.1252C8.72963 95.0065 28.3428 113.925 55.4901 140.119C59.0593 143.556 62.7208 147.09 66.4879 150.791Z" fill="url(#paint2_linear_2:1378)" />
    <path d="M15.9651 66.378C15.9651 94.2506 38.5673 116.848 66.4398 116.848C94.3167 116.848 116.91 94.2506 116.91 66.378C116.91 38.5011 94.3167 15.9033 66.4398 15.9033C38.5673 15.9033 15.9651 38.5011 15.9651 66.378Z" fill="#2E8C00" />
    <path d="M22.6818 66.3781C22.6818 90.5452 42.273 110.136 66.44 110.136C90.607 110.136 110.198 90.5452 110.198 66.3781C110.198 42.2111 90.607 22.6155 66.44 22.6155C42.273 22.6155 22.6818 42.2111 22.6818 66.3781Z" fill="url(#paint3_radial_2:1378)" />
    <path fill-rule="evenodd" clip-rule="evenodd" d="M64.2946 69.7889C64.2946 76.2988 63.2705 81.156 61.2177 84.3692C59.165 87.5779 56.0265 89.1867 51.8023 89.1867C47.754 89.1867 44.6683 87.5384 42.5584 84.2505C40.4441 80.9626 39.3892 76.145 39.3892 69.7889C39.3892 63.2307 40.4133 58.3647 42.4573 55.1867C44.4968 52.0087 47.6133 50.4219 51.8023 50.4219C55.8903 50.4219 58.9936 52.079 61.1166 55.3933C63.2353 58.7076 64.2946 63.5076 64.2946 69.7889ZM43.7188 69.7889C43.7188 75.2658 44.3606 79.2571 45.6485 81.7538C46.9364 84.2505 48.9892 85.5032 51.8023 85.5032C54.6551 85.5032 56.721 84.2373 58.0001 81.701C59.2793 79.1692 59.9166 75.1999 59.9166 69.7889C59.9166 64.3823 59.2793 60.4175 58.0001 57.9032C56.721 55.3889 54.6551 54.1318 51.8023 54.1318C48.9892 54.1318 46.9364 55.3713 45.6485 57.8549C44.3606 60.334 43.7188 64.312 43.7188 69.7889Z" fill="black" />
    <path d="M92.8309 59.8724C92.8309 62.2768 92.1584 64.2461 90.8133 65.7713C89.4639 67.301 87.5518 68.3208 85.0815 68.8395V69.0417C88.1013 69.4197 90.343 70.3823 91.8024 71.9296C93.2617 73.4724 93.9914 75.4988 93.9914 78.0043C93.9914 81.5955 92.7474 84.3559 90.2595 86.2856C87.7672 88.2197 84.2287 89.1867 79.6441 89.1867C77.6529 89.1867 75.8287 89.0329 74.1716 88.734C72.5144 88.4351 70.9057 87.9076 69.3452 87.1515V83.0812C70.976 83.8856 72.7122 84.501 74.5584 84.923C76.4046 85.3449 78.154 85.5516 79.8024 85.5516C86.3079 85.5516 89.5606 83.0021 89.5606 77.9032C89.5606 73.3362 85.9738 71.0504 78.7958 71.0504H75.0859V67.3713H78.8485C81.7848 67.3713 84.1101 66.7208 85.8287 65.4241C87.543 64.1274 88.4046 62.3296 88.4046 60.0307C88.4046 58.1933 87.7716 56.7515 86.5101 55.701C85.2485 54.6548 83.5342 54.1318 81.3716 54.1318C79.7232 54.1318 78.1716 54.3559 76.7079 54.7999C75.2485 55.2482 73.587 56.0702 71.7144 57.2746L69.5518 54.3867C71.0947 53.1691 72.8749 52.2109 74.8925 51.5164C76.91 50.8219 79.0375 50.4746 81.2705 50.4746C84.9276 50.4746 87.7672 51.3098 89.7936 52.9845C91.8199 54.6592 92.8309 56.9537 92.8309 59.8724Z" fill="black" />
  </g>
  <defs>
    <linearGradient id="paint0_linear_2:1378" x1="0.052981" y1="4.07122" x2="0.052981" y2="160.489" gradientUnits="userSpaceOnUse">
      <stop stop-color="#D6EBC1" />
      <stop offset="0.388" stop-color="#72C447" />
      <stop offset="1" stop-color="#3DA746" />
    </linearGradient>
    <linearGradient id="paint1_linear_2:1378" x1="124.149" y1="5.65484" x2="8.72918" y2="5.65484" gradientUnits="userSpaceOnUse">
      <stop stop-color="#55BD49" />
      <stop offset="0.43" stop-color="#63C048" />
      <stop offset="1" stop-color="#55BD49" />
    </linearGradient>
    <linearGradient id="paint2_linear_2:1378" x1="124.149" y1="5.65484" x2="8.72918" y2="5.65484" gradientUnits="userSpaceOnUse">
      <stop stop-color="#55BD49" />
      <stop offset="0.436" stop-color="#7AC547" />
      <stop offset="1" stop-color="#55BD49" />
    </linearGradient>
    <radialGradient id="paint3_radial_2:1378" cx="0" cy="0" r="1" gradientUnits="userSpaceOnUse" gradientTransform="translate(66.8369 32.0476) rotate(90) scale(75.9859)">
      <stop stop-color="#F7F9F9" />
      <stop offset="1" stop-color="#B6BFBD" />
    </radialGradient>
    <clipPath id="clip0_2:1378">
      <rect width="130.989" height="160" fill="white" />
    </clipPath>
  </defs>
</svg>