<svg width="131" height="160" viewBox="0 0 131 160" fill="none" xmlns="http://www.w3.org/2000/svg">
  <g clip-path="url(#clip0_2:1388)">
    <path d="M1.81122 64.5758C1.81122 103.011 30.5101 124.382 66.4442 160.079C103.205 124.651 131.068 103.662 131.068 64.5758C131.068 28.8791 102.132 -0.0527344 66.4442 -0.0527344C30.7475 -0.0527344 1.81122 28.8791 1.81122 64.5758Z" fill="url(#paint0_linear_2:1388)" />
    <path d="M66.4879 150.791C69.5912 147.828 72.611 144.971 75.5648 142.189C104.826 114.571 124.149 96.3252 124.149 65.1252C124.149 33.301 98.2637 7.41089 66.4439 7.41089C34.6198 7.41089 8.72963 33.301 8.72963 65.1252C8.72963 95.0065 28.3472 113.925 55.4945 140.119C59.0637 143.556 62.7252 147.09 66.4879 150.791Z" fill="url(#paint1_linear_2:1388)" />
    <path d="M66.4879 150.791C69.5912 147.828 72.611 144.971 75.5648 142.189C104.826 114.571 124.149 96.3252 124.149 65.1252C124.149 33.301 98.2637 7.41089 66.4439 7.41089C34.6198 7.41089 8.72963 33.301 8.72963 65.1252C8.72963 95.0065 28.3472 113.925 55.4945 140.119C59.0637 143.556 62.7252 147.09 66.4879 150.791Z" fill="url(#paint2_linear_2:1388)" />
    <path d="M15.9695 66.378C15.9695 94.2506 38.5673 116.848 66.4442 116.848C94.3168 116.848 116.915 94.2506 116.915 66.378C116.915 38.5011 94.3168 15.9033 66.4442 15.9033C38.5673 15.9033 15.9695 38.5011 15.9695 66.378Z" fill="#638C08" />
    <path d="M22.6817 66.3781C22.6817 90.5452 42.2774 110.136 66.4444 110.136C90.6115 110.136 110.203 90.5452 110.203 66.3781C110.203 42.2111 90.6115 22.6155 66.4444 22.6155C42.2774 22.6155 22.6817 42.2111 22.6817 66.3781Z" fill="url(#paint3_radial_2:1388)" />
    <path fill-rule="evenodd" clip-rule="evenodd" d="M63.5822 69.5164C63.5822 76.0219 62.5581 80.8835 60.5053 84.0922C58.4526 87.3054 55.3141 88.9098 51.0899 88.9098C47.0372 88.9098 43.9559 87.2659 41.846 83.978C39.7317 80.69 38.6768 75.8681 38.6768 69.5164C38.6768 62.9582 39.6965 58.0879 41.7405 54.9142C43.7844 51.7362 46.9009 50.1494 51.0899 50.1494C55.1779 50.1494 58.2811 51.8065 60.3998 55.1208C62.5229 58.4307 63.5822 63.2307 63.5822 69.5164ZM43.002 69.5164C43.002 74.9933 43.6482 78.9801 44.9361 81.4812C46.224 83.9779 48.2768 85.2263 51.0899 85.2263C53.9427 85.2263 56.0042 83.9604 57.2833 81.4285C58.5625 78.8966 59.2042 74.923 59.2042 69.5164C59.2042 64.1054 58.5625 60.145 57.2833 57.6307C56.0042 55.1165 53.9427 53.8549 51.0899 53.8549C48.2768 53.8549 46.224 55.0988 44.9361 57.5779C43.6482 60.0615 43.002 64.0395 43.002 69.5164Z" fill="black" />
    <path fill-rule="evenodd" clip-rule="evenodd" d="M95.314 79.7405H89.7228V88.3955H85.6305V79.7405H67.3184V76.0086L85.1909 50.5361H89.7228V75.8504H95.314V79.7405ZM85.6305 75.8504V63.3361C85.6305 60.879 85.714 58.1053 85.8854 55.0152H85.6788C84.8568 56.6636 84.0832 58.0306 83.3623 59.112L71.5909 75.8504H85.6305Z" fill="black" />
  </g>
  <defs>
    <linearGradient id="paint0_linear_2:1388" x1="0.0538621" y1="4.07122" x2="0.0538621" y2="160.489" gradientUnits="userSpaceOnUse">
      <stop stop-color="#E6EEB7" />
      <stop offset="0.388" stop-color="#AED244" />
      <stop offset="1" stop-color="#67A640" />
    </linearGradient>
    <linearGradient id="paint1_linear_2:1388" x1="124.15" y1="5.65484" x2="8.73138" y2="5.65484" gradientUnits="userSpaceOnUse">
      <stop stop-color="#85C846" />
      <stop offset="0.43" stop-color="#9BCD45" />
      <stop offset="1" stop-color="#85C846" />
    </linearGradient>
    <linearGradient id="paint2_linear_2:1388" x1="124.15" y1="5.65484" x2="8.73138" y2="5.65484" gradientUnits="userSpaceOnUse">
      <stop stop-color="#85C846" />
      <stop offset="0.436" stop-color="#A3CF44" />
      <stop offset="1" stop-color="#85C846" />
    </linearGradient>
    <radialGradient id="paint3_radial_2:1388" cx="0" cy="0" r="1" gradientUnits="userSpaceOnUse" gradientTransform="translate(66.84 32.0476) rotate(90) scale(75.9855)">
      <stop stop-color="#F7F9F9" />
      <stop offset="1" stop-color="#B6BFBD" />
    </radialGradient>
    <clipPath id="clip0_2:1388">
      <rect width="130.989" height="160" fill="white" />
    </clipPath>
  </defs>
</svg>