<svg width="131" height="160" viewBox="0 0 131 160" fill="none" xmlns="http://www.w3.org/2000/svg">
  <g clip-path="url(#clip0_2:1398)">
    <path d="M1.81125 64.5758C1.81125 103.011 30.5102 124.382 66.4398 160.079C103.205 124.651 131.068 103.662 131.068 64.5758C131.068 28.8791 102.132 -0.0527344 66.4398 -0.0527344C30.7475 -0.0527344 1.81125 28.8791 1.81125 64.5758Z" fill="url(#paint0_linear_2:1398)" />
    <path d="M66.4879 150.791C69.5868 147.828 72.611 144.971 75.5648 142.189C104.822 114.571 124.149 96.3252 124.149 65.1252C124.149 33.301 98.2637 7.41089 66.4396 7.41089C34.6154 7.41089 8.72964 33.301 8.72964 65.1252C8.72964 95.0065 28.3472 113.925 55.4945 140.119C59.0637 143.556 62.7253 147.09 66.4879 150.791Z" fill="url(#paint1_linear_2:1398)" />
    <path d="M66.4879 150.791C69.5868 147.828 72.611 144.971 75.5648 142.189C104.822 114.571 124.149 96.3252 124.149 65.1252C124.149 33.301 98.2637 7.41089 66.4396 7.41089C34.6154 7.41089 8.72964 33.301 8.72964 65.1252C8.72964 95.0065 28.3472 113.925 55.4945 140.119C59.0637 143.556 62.7253 147.09 66.4879 150.791Z" fill="url(#paint2_linear_2:1398)" />
    <path d="M15.9651 66.378C15.9651 94.2506 38.5673 116.848 66.4398 116.848C94.3168 116.848 116.915 94.2506 116.915 66.378C116.915 38.5011 94.3168 15.9033 66.4398 15.9033C38.5673 15.9033 15.9651 38.5011 15.9651 66.378Z" fill="#7F9F00" />
    <path d="M22.6817 66.3781C22.6817 90.5452 42.2774 110.136 66.4444 110.136C90.6071 110.136 110.203 90.5452 110.203 66.3781C110.203 42.2111 90.6071 22.6155 66.4444 22.6155C42.2774 22.6155 22.6817 42.2111 22.6817 66.3781Z" fill="url(#paint3_radial_2:1398)" />
    <path fill-rule="evenodd" clip-rule="evenodd" d="M64.2463 66.6989C64.2463 73.2043 63.2177 78.0658 61.165 81.2746C59.1166 84.4834 55.9782 86.0923 51.754 86.0923C47.7013 86.0923 44.6199 84.4483 42.5057 81.1603C40.3958 77.8724 39.3408 73.0505 39.3408 66.6989C39.3408 60.1406 40.3606 55.2702 42.4046 52.0922C44.4485 48.9186 47.565 47.3274 51.754 47.3274C55.8375 47.3274 58.9452 48.9846 61.0639 52.2988C63.1826 55.6131 64.2463 60.4131 64.2463 66.6989ZM43.6661 66.6989C43.6661 72.1758 44.3079 76.1626 45.5958 78.6593C46.8837 81.1604 48.9364 82.4087 51.754 82.4087C54.6024 82.4087 56.6683 81.1428 57.9474 78.6109C59.2265 76.0747 59.8639 72.1054 59.8639 66.6989C59.8639 61.2879 59.2265 57.3274 57.9474 54.8087C56.6683 52.2944 54.6024 51.0373 51.754 51.0373C48.9364 51.0373 46.8837 52.2769 45.5958 54.7604C44.3079 57.2395 43.6661 61.2219 43.6661 66.6989Z" fill="black" />
    <path d="M81.2175 62.5759C85.1823 62.5759 88.3032 63.5605 90.5801 65.5253C92.8527 67.4902 93.9911 70.1847 93.9911 73.6C93.9911 77.4989 92.7516 80.5539 90.2681 82.7693C87.7889 84.9847 84.3692 86.0924 80.0043 86.0924C75.767 86.0924 72.5274 85.411 70.2988 84.0572V79.9341C71.4988 80.7077 72.9933 81.3143 74.7779 81.7495C76.5626 82.1891 78.3252 82.4088 80.0571 82.4088C83.0812 82.4088 85.4285 81.6968 87.1032 80.2682C88.7779 78.844 89.6131 76.7868 89.6131 74.0879C89.6131 68.8352 86.3955 66.2067 79.956 66.2067C78.3252 66.2067 76.145 66.4572 73.4109 66.9539L71.1999 65.5385L72.6153 47.9209H91.3406V51.8638H76.2725L75.3186 63.1693C77.2922 62.7737 79.2615 62.5759 81.2175 62.5759Z" fill="black" />
  </g>
  <defs>
    <linearGradient id="paint0_linear_2:1398" x1="0.053012" y1="4.07122" x2="0.053012" y2="160.489" gradientUnits="userSpaceOnUse">
      <stop stop-color="#F3F4C6" />
      <stop offset="0.388" stop-color="#E6E040" />
      <stop offset="1" stop-color="#8DB740" />
    </linearGradient>
    <linearGradient id="paint1_linear_2:1398" x1="124.15" y1="5.65484" x2="8.72964" y2="5.65484" gradientUnits="userSpaceOnUse">
      <stop stop-color="#B8D443" />
      <stop offset="0.43" stop-color="#CFDA41" />
      <stop offset="1" stop-color="#B8D443" />
    </linearGradient>
    <linearGradient id="paint2_linear_2:1398" x1="124.15" y1="5.65484" x2="8.72964" y2="5.65484" gradientUnits="userSpaceOnUse">
      <stop stop-color="#B8D443" />
      <stop offset="0.436" stop-color="#DDDE41" />
      <stop offset="1" stop-color="#B8D443" />
    </linearGradient>
    <radialGradient id="paint3_radial_2:1398" cx="0" cy="0" r="1" gradientUnits="userSpaceOnUse" gradientTransform="translate(66.8378 32.0476) rotate(90) scale(75.9859)">
      <stop stop-color="#F7F9F9" />
      <stop offset="1" stop-color="#B6BFBD" />
    </radialGradient>
    <clipPath id="clip0_2:1398">
      <rect width="130.989" height="160" fill="white" />
    </clipPath>
  </defs>
</svg>