<svg width="131" height="160" viewBox="0 0 131 160" fill="none" xmlns="http://www.w3.org/2000/svg">
  <g clip-path="url(#clip0_2:1574)">
    <path d="M1.80876 64.5737C1.80876 103.013 30.5121 124.385 66.4417 160.081C103.202 124.657 131.07 103.664 131.07 64.5737C131.07 28.8857 102.134 -0.0505371 66.4417 -0.0505371C30.7494 -0.0505371 1.80876 28.8857 1.80876 64.5737Z" fill="url(#paint0_linear_2:1574)" />
    <path d="M66.4898 150.789C69.5887 147.831 72.6129 144.974 75.5624 142.191C104.824 114.569 124.151 96.3274 124.151 65.123C124.151 33.3032 98.2657 7.41309 66.4415 7.41309C34.6217 7.41309 8.73158 33.3032 8.73158 65.123C8.73158 95.0087 28.3492 113.927 55.4964 140.116C59.0656 143.558 62.7272 147.092 66.4898 150.789Z" fill="url(#paint1_linear_2:1574)" />
    <path d="M66.4898 150.789C69.5887 147.831 72.6129 144.974 75.5624 142.191C104.824 114.569 124.151 96.3274 124.151 65.123C124.151 33.3032 98.2657 7.41309 66.4415 7.41309C34.6217 7.41309 8.73158 33.3032 8.73158 65.123C8.73158 95.0087 28.3492 113.927 55.4964 140.116C59.0656 143.558 62.7272 147.092 66.4898 150.789Z" fill="url(#paint2_linear_2:1574)" />
    <path d="M15.9671 66.3758C15.9671 94.2528 38.5649 116.851 66.4418 116.851C94.3187 116.851 116.917 94.2528 116.917 66.3758C116.917 38.5033 94.3187 15.9055 66.4418 15.9055C38.5649 15.9055 15.9671 38.5033 15.9671 66.3758Z" fill="#B49500" />
    <path d="M22.6793 66.3757C22.6793 90.5427 42.2749 110.138 66.442 110.138C90.609 110.138 110.2 90.5427 110.2 66.3757C110.2 42.213 90.609 22.6174 66.442 22.6174C42.2749 22.6174 22.6793 42.213 22.6793 66.3757Z" fill="url(#paint3_radial_2:1574)" />
    <path fill-rule="evenodd" clip-rule="evenodd" d="M63.2351 64.9847C63.2351 71.4946 62.2109 76.3517 60.1582 79.5605C58.1054 82.7737 54.967 84.3781 50.7428 84.3781C46.69 84.3781 43.6087 82.7341 41.4988 79.4462C39.3845 76.1583 38.3296 71.3363 38.3296 64.9847C38.3296 58.4265 39.3538 53.5605 41.3933 50.3825C43.4373 47.2045 46.5538 45.6177 50.7428 45.6177C54.8307 45.6177 57.934 47.2748 60.0527 50.5891C62.1758 53.9034 63.2351 58.699 63.2351 64.9847ZM42.6549 64.9847C42.6549 70.4616 43.301 74.4484 44.5889 76.9495C45.8769 79.4462 47.9296 80.6946 50.7428 80.6946C53.5955 80.6946 55.6571 79.4286 56.9362 76.8968C58.2153 74.3649 58.8571 70.3957 58.8571 64.9847C58.8571 59.5781 58.2153 55.6133 56.9362 53.099C55.6571 50.5847 53.5955 49.3276 50.7428 49.3276C47.9296 49.3276 45.8769 50.5671 44.5889 53.0462C43.301 55.5298 42.6549 59.5078 42.6549 64.9847Z" fill="black" />
    <path fill-rule="evenodd" clip-rule="evenodd" d="M68.8745 67.7671C68.8745 60.3649 70.3119 54.8352 73.191 51.1693C76.0657 47.5034 80.3206 45.6704 85.9514 45.6704C87.8899 45.6704 89.4195 45.833 90.536 46.1583V49.8418C89.2129 49.4111 87.7052 49.1957 86.0042 49.1957C81.969 49.1957 78.8877 50.4528 76.7558 52.9715C74.6283 55.4858 73.4591 59.4374 73.2525 64.8309H73.5646C75.4503 61.877 78.4393 60.4001 82.5272 60.4001C85.9075 60.4001 88.5756 61.4243 90.5228 63.4638C92.4701 65.5078 93.4459 68.2814 93.4459 71.7847C93.4459 75.7012 92.3778 78.7781 90.2415 81.0199C88.1009 83.2572 85.213 84.3781 81.5734 84.3781C77.6745 84.3781 74.5844 82.9144 72.3031 79.9869C70.0174 77.0594 68.8745 72.9847 68.8745 67.7671ZM81.5206 80.7473C83.9602 80.7473 85.8547 79.9781 87.1998 78.444C88.5492 76.9056 89.2217 74.6858 89.2217 71.7847C89.2217 69.2968 88.5976 67.3363 87.3404 65.9122C86.0877 64.488 84.2195 63.7759 81.7272 63.7759C80.1844 63.7759 78.7646 64.0924 77.4767 64.7254C76.1888 65.3627 75.1646 66.2374 74.3998 67.3539C73.6349 68.4704 73.2525 69.6309 73.2525 70.8309C73.2525 72.5979 73.5998 74.2462 74.2855 75.7759C74.9712 77.3056 75.947 78.5144 77.2086 79.4067C78.4701 80.299 79.9074 80.7473 81.5206 80.7473Z" fill="black" />
  </g>
  <defs>
    <linearGradient id="paint0_linear_2:1574" x1="0.0527214" y1="4.0743" x2="0.0527214" y2="160.49" gradientUnits="userSpaceOnUse">
      <stop stop-color="#FFF7C8" />
      <stop offset="0.388" stop-color="#FFE843" />
      <stop offset="1" stop-color="#CEA734" />
    </linearGradient>
    <linearGradient id="paint1_linear_2:1574" x1="124.152" y1="5.65528" x2="8.73157" y2="5.65528" gradientUnits="userSpaceOnUse">
      <stop stop-color="#EBC538" />
      <stop offset="0.43" stop-color="#FFD439" />
      <stop offset="1" stop-color="#EBC538" />
    </linearGradient>
    <linearGradient id="paint2_linear_2:1574" x1="124.152" y1="5.65528" x2="8.73157" y2="5.65528" gradientUnits="userSpaceOnUse">
      <stop stop-color="#EBC538" />
      <stop offset="0.436" stop-color="#FFE843" />
      <stop offset="1" stop-color="#EBC538" />
    </linearGradient>
    <radialGradient id="paint3_radial_2:1574" cx="0" cy="0" r="1" gradientUnits="userSpaceOnUse" gradientTransform="translate(66.838 32.0464) rotate(90) scale(75.9864)">
      <stop stop-color="#F7F9F9" />
      <stop offset="1" stop-color="#B6BFBD" />
    </radialGradient>
    <clipPath id="clip0_2:1574">
      <rect width="130.989" height="160" fill="white" />
    </clipPath>
  </defs>
</svg>