<svg width="131" height="160" viewBox="0 0 131 160" fill="none" xmlns="http://www.w3.org/2000/svg">
  <g clip-path="url(#clip0_2:1562)">
    <path d="M1.81074 64.5758C1.81074 103.011 30.5096 124.382 66.4393 160.079C103.204 124.655 131.068 103.662 131.068 64.5714C131.068 28.8835 102.132 -0.0527344 66.4393 -0.0527344C30.747 -0.0527344 1.81074 28.8835 1.81074 64.5758Z" fill="url(#paint0_linear_2:1562)" />
    <path d="M66.4879 150.787C69.5868 147.828 72.611 144.971 75.5648 142.189C104.822 114.567 124.149 96.3252 124.149 65.1208C124.149 33.301 98.2637 7.41089 66.4395 7.41089C34.6197 7.41089 8.72965 33.301 8.72965 65.1208C8.72965 95.0065 28.3472 113.925 55.4945 140.114C59.0637 143.556 62.7252 147.09 66.4879 150.787Z" fill="url(#paint1_linear_2:1562)" />
    <path d="M66.4879 150.787C69.5868 147.828 72.611 144.971 75.5648 142.189C104.822 114.567 124.149 96.3252 124.149 65.1208C124.149 33.301 98.2637 7.41089 66.4395 7.41089C34.6197 7.41089 8.72965 33.301 8.72965 65.1208C8.72965 95.0065 28.3472 113.925 55.4945 140.114C59.0637 143.556 62.7252 147.09 66.4879 150.787Z" fill="url(#paint2_linear_2:1562)" />
    <path d="M15.969 66.3781C15.969 94.2506 38.5668 116.848 66.4393 116.848C94.3163 116.848 116.914 94.2506 116.914 66.3737C116.914 38.5011 94.3163 15.9033 66.4393 15.9033C38.5668 15.9033 15.969 38.5011 15.969 66.3781Z" fill="#BE8200" />
    <path d="M22.6808 66.3781C22.6808 90.5408 42.2764 110.136 66.4434 110.136C90.6105 110.136 110.202 90.5407 110.202 66.3737C110.202 42.2111 90.6105 22.6155 66.4434 22.6155C42.2764 22.6155 22.6808 42.2111 22.6808 66.3781Z" fill="url(#paint3_radial_2:1562)" />
    <path fill-rule="evenodd" clip-rule="evenodd" d="M64.6067 67.6749C64.6067 74.1804 63.5781 79.0419 61.5297 82.2507C59.477 85.4639 56.3385 87.0683 52.1144 87.0683C48.0616 87.0683 44.9803 85.4244 42.8704 82.1364C40.7561 78.8485 39.7012 74.0265 39.7012 67.6749C39.7012 61.1167 40.721 56.2463 42.7649 53.0727C44.8089 49.8947 47.9254 48.3079 52.1144 48.3079C56.2023 48.3079 59.3056 49.965 61.4243 53.2793C63.5473 56.5892 64.6067 61.3892 64.6067 67.6749ZM44.0264 67.6749C44.0264 73.1518 44.6726 77.1386 45.9605 79.6397C47.2484 82.1364 49.2968 83.3848 52.1144 83.3848C54.9627 83.3848 57.0286 82.1188 58.3078 79.587C59.5869 77.0551 60.2287 73.0815 60.2287 67.6749C60.2287 62.2639 59.5869 58.3035 58.3078 55.7892C57.0286 53.2749 54.9627 52.0134 52.1144 52.0134C49.2968 52.0134 47.2484 53.2573 45.9605 55.7364C44.6726 58.22 44.0264 62.198 44.0264 67.6749Z" fill="black" />
    <path d="M74.5715 86.5539L90.1803 52.8396H69.6528V48.8967H94.7122V52.3253L79.3144 86.5539H74.5715Z" fill="black" />
  </g>
  <defs>
    <linearGradient id="paint0_linear_2:1562" x1="0.0529386" y1="4.0721" x2="0.0529386" y2="160.487" gradientUnits="userSpaceOnUse">
      <stop stop-color="#FFF7C8" />
      <stop offset="0.388" stop-color="#FFD639" />
      <stop offset="1" stop-color="#DB962E" />
    </linearGradient>
    <linearGradient id="paint1_linear_2:1562" x1="124.15" y1="5.65309" x2="8.73052" y2="5.65309" gradientUnits="userSpaceOnUse">
      <stop stop-color="#FFB631" />
      <stop offset="0.43" stop-color="#FFC333" />
      <stop offset="1" stop-color="#FFB631" />
    </linearGradient>
    <linearGradient id="paint2_linear_2:1562" x1="124.15" y1="5.65309" x2="8.73052" y2="5.65309" gradientUnits="userSpaceOnUse">
      <stop stop-color="#FFB631" />
      <stop offset="0.436" stop-color="#FFCF37" />
      <stop offset="1" stop-color="#FFB631" />
    </linearGradient>
    <radialGradient id="paint3_radial_2:1562" cx="0" cy="0" r="1" gradientUnits="userSpaceOnUse" gradientTransform="translate(66.8377 32.0445) rotate(90) scale(75.9864)">
      <stop stop-color="#F7F9F9" />
      <stop offset="1" stop-color="#B6BFBD" />
    </radialGradient>
    <clipPath id="clip0_2:1562">
      <rect width="130.989" height="160" fill="white" />
    </clipPath>
  </defs>
</svg>