<svg width="131" height="160" viewBox="0 0 131 160" fill="none" xmlns="http://www.w3.org/2000/svg">
<g clip-path="url(#clip0_2:1550)">
<path d="M1.81125 64.5758C1.81125 103.011 30.5057 124.382 66.4398 160.079C103.205 124.655 131.068 103.662 131.068 64.5758C131.068 28.8835 102.132 -0.0527344 66.4398 -0.0527344C30.7475 -0.0527344 1.81125 28.8835 1.81125 64.5758Z" fill="url(#paint0_linear_2:1550)"/>
<path d="M66.4879 150.787C69.5868 147.829 72.611 144.971 75.5604 142.189C104.822 114.567 124.149 96.3253 124.149 65.1209C124.149 33.3011 98.2593 7.41101 66.4395 7.41101C34.6154 7.41101 8.72964 33.3011 8.72964 65.1209C8.72964 95.0066 28.3428 113.925 55.4901 140.114C59.0593 143.556 62.7208 147.09 66.4879 150.787Z" fill="url(#paint1_linear_2:1550)"/>
<path d="M66.4879 150.787C69.5868 147.829 72.611 144.971 75.5604 142.189C104.822 114.567 124.149 96.3253 124.149 65.1209C124.149 33.3011 98.2593 7.41101 66.4395 7.41101C34.6154 7.41101 8.72964 33.3011 8.72964 65.1209C8.72964 95.0066 28.3428 113.925 55.4901 140.114C59.0593 143.556 62.7208 147.09 66.4879 150.787Z" fill="url(#paint2_linear_2:1550)"/>
<path d="M15.9651 66.3781C15.9651 94.2506 38.5673 116.848 66.4398 116.848C94.3167 116.848 116.91 94.2506 116.91 66.3781C116.91 38.5011 94.3167 15.9033 66.4398 15.9033C38.5673 15.9033 15.9651 38.5011 15.9651 66.3781Z" fill="#BE5A00"/>
<path d="M22.6817 66.378C22.6817 90.5406 42.273 110.136 66.44 110.136C90.607 110.136 110.203 90.5406 110.203 66.378C110.203 42.211 90.607 22.6154 66.44 22.6154C42.273 22.6154 22.6817 42.211 22.6817 66.378Z" fill="url(#paint3_radial_2:1550)"/>
<path fill-rule="evenodd" clip-rule="evenodd" d="M63.3142 65.767C63.3142 72.2769 62.2856 77.1341 60.2329 80.3473C58.1845 83.556 55.046 85.1648 50.8219 85.1648C46.7691 85.1648 43.6878 83.5209 41.5735 80.2286C39.4636 76.9451 38.4087 72.1231 38.4087 65.767C38.4087 59.2088 39.4285 54.3429 41.4724 51.1648C43.5164 47.9912 46.6329 46.4 50.8219 46.4C54.9098 46.4 58.0131 48.0572 60.1318 51.3715C62.2504 54.6857 63.3142 59.4857 63.3142 65.767ZM42.734 65.767C42.734 71.2484 43.3801 75.2352 44.6636 77.7319C45.9515 80.2286 48.0043 81.4813 50.8219 81.4813C53.6702 81.4813 55.7361 80.2154 57.0153 77.6791C58.2944 75.1473 58.9362 71.178 58.9362 65.767C58.9362 60.3605 58.2944 56.4 57.0153 53.8813C55.7361 51.367 53.6702 50.1099 50.8219 50.1099C48.0043 50.1099 45.9515 51.3495 44.6636 53.833C43.3801 56.3121 42.734 60.2901 42.734 65.767Z" fill="black"/>
<path fill-rule="evenodd" clip-rule="evenodd" d="M80.9801 46.4528C84.413 46.4528 87.1383 47.2528 89.1471 48.8484C91.1559 50.444 92.1581 52.6506 92.1581 55.4681C92.1581 57.3231 91.5823 59.011 90.435 60.5407C89.2834 62.0703 87.446 63.4593 84.9229 64.7121C87.9779 66.1714 90.1493 67.7055 91.4372 69.3099C92.7251 70.9187 93.3713 72.7736 93.3713 74.8879C93.3713 78.0132 92.2812 80.5055 90.0965 82.3692C87.9163 84.233 84.9317 85.1649 81.1339 85.1649C77.1163 85.1649 74.0262 84.2857 71.8636 82.5231C69.7009 80.7649 68.6196 78.2681 68.6196 75.0418C68.6196 70.7297 71.2438 67.3758 76.5009 64.9714C74.1317 63.6308 72.4306 62.1846 71.4021 60.6286C70.3691 59.0769 69.8548 57.3363 69.8548 55.4154C69.8548 52.6857 70.8614 50.5099 72.879 48.8879C74.8966 47.2615 77.5998 46.4528 80.9801 46.4528ZM72.8438 75.1429C72.8438 77.2044 73.5603 78.8088 74.9933 79.9604C76.4262 81.1121 78.4394 81.6879 81.0328 81.6879C83.5911 81.6879 85.5823 81.0857 87.0064 79.8813C88.435 78.6813 89.1471 77.033 89.1471 74.9363C89.1471 73.2703 88.4746 71.7934 87.1383 70.4967C85.7977 69.2 83.4636 67.9429 80.1317 66.7209C77.5735 67.8198 75.7185 69.0374 74.5669 70.3648C73.4196 71.6967 72.8438 73.2879 72.8438 75.1429ZM80.9273 49.9297C78.7823 49.9297 77.0988 50.444 75.8812 51.4725C74.6636 52.5055 74.0526 53.8769 74.0526 55.5956C74.0526 57.1736 74.5581 58.5319 75.5735 59.6659C76.5845 60.8 78.457 61.9297 81.1867 63.0637C83.6438 62.0352 85.3801 60.9275 86.4043 59.7407C87.424 58.5582 87.9339 57.1736 87.9339 55.5956C87.9339 53.8593 87.3141 52.4835 86.0658 51.4637C84.8218 50.4396 83.1119 49.9297 80.9273 49.9297Z" fill="black"/>
</g>
<defs>
<linearGradient id="paint0_linear_2:1550" x1="0.0512468" y1="4.0721" x2="0.0512468" y2="160.487" gradientUnits="userSpaceOnUse">
<stop stop-color="#FFF5C7"/>
<stop offset="0.388" stop-color="#FFA82D"/>
<stop offset="1" stop-color="#D17928"/>
</linearGradient>
<linearGradient id="paint1_linear_2:1550" x1="124.148" y1="5.65321" x2="8.72965" y2="5.65321" gradientUnits="userSpaceOnUse">
<stop stop-color="#FF8E28"/>
<stop offset="0.43" stop-color="#FF9729"/>
<stop offset="1" stop-color="#FF8E28"/>
</linearGradient>
<linearGradient id="paint2_linear_2:1550" x1="124.148" y1="5.65321" x2="8.72965" y2="5.65321" gradientUnits="userSpaceOnUse">
<stop stop-color="#FB8928"/>
<stop offset="0.436" stop-color="#FF9C2A"/>
<stop offset="1" stop-color="#FB8928"/>
</linearGradient>
<radialGradient id="paint3_radial_2:1550" cx="0" cy="0" r="1" gradientUnits="userSpaceOnUse" gradientTransform="translate(66.8396 32.0444) rotate(90) scale(75.9864)">
<stop stop-color="#F7F9F9"/>
<stop offset="1" stop-color="#B6BFBD"/>
</radialGradient>
<clipPath id="clip0_2:1550">
<rect width="130.989" height="160" fill="white"/>
</clipPath>
</defs>
</svg>
