<svg width="131" height="160" viewBox="0 0 131 160" fill="none" xmlns="http://www.w3.org/2000/svg">
<g clip-path="url(#clip0_2:1538)">
<path d="M1.81119 64.5758C1.81119 103.011 30.5101 124.382 66.4398 160.079C103.205 124.655 131.068 103.662 131.068 64.5758C131.068 28.8835 102.132 -0.0527344 66.4398 -0.0527344C30.7475 -0.0527344 1.81119 28.8835 1.81119 64.5758Z" fill="url(#paint0_linear_2:1538)"/>
<path d="M66.4878 150.787C69.5911 147.829 72.6109 144.971 75.5604 142.189C104.822 114.567 124.149 96.3253 124.149 65.1209C124.149 33.3011 98.2637 7.41101 66.4395 7.41101C34.6197 7.41101 8.72964 33.3011 8.72964 65.1209C8.72964 95.0066 28.3472 113.925 55.4944 140.114C59.0637 143.556 62.7252 147.09 66.4878 150.787Z" fill="url(#paint1_linear_2:1538)"/>
<path d="M66.4878 150.787C69.5911 147.829 72.6109 144.971 75.5604 142.189C104.822 114.567 124.149 96.3253 124.149 65.1209C124.149 33.3011 98.2637 7.41101 66.4395 7.41101C34.6197 7.41101 8.72964 33.3011 8.72964 65.1209C8.72964 95.0066 28.3472 113.925 55.4944 140.114C59.0637 143.556 62.7252 147.09 66.4878 150.787Z" fill="url(#paint2_linear_2:1538)"/>
<path d="M15.9695 66.3781C15.9695 94.2506 38.5629 116.848 66.4398 116.848C94.3167 116.848 116.915 94.2506 116.915 66.3781C116.915 38.5011 94.3167 15.9033 66.4398 15.9033C38.5629 15.9033 15.9695 38.5011 15.9695 66.3781Z" fill="#AA3C00"/>
<path d="M22.6818 66.378C22.6818 90.5406 42.2773 110.136 66.44 110.136C90.607 110.136 110.198 90.5406 110.198 66.378C110.198 42.211 90.607 22.6154 66.44 22.6154C42.2773 22.6154 22.6818 42.211 22.6818 66.378Z" fill="url(#paint3_radial_2:1538)"/>
<path fill-rule="evenodd" clip-rule="evenodd" d="M64.2024 69.0725C64.2024 75.5824 63.1782 80.4395 61.1254 83.6527C59.0727 86.8615 55.9386 88.4659 51.7144 88.4659C47.6617 88.4659 44.5804 86.822 42.4661 83.534C40.3562 80.2461 39.2969 75.4285 39.2969 69.0725C39.2969 62.5143 40.3211 57.6483 42.365 54.4703C44.409 51.2923 47.521 49.7054 51.7144 49.7054C55.798 49.7054 58.9013 51.3626 61.0244 54.6769C63.143 57.9912 64.2024 62.7912 64.2024 69.0725ZM43.6265 69.0725C43.6265 74.5494 44.2683 78.5406 45.5562 81.0373C46.8441 83.534 48.8969 84.7824 51.7144 84.7824C54.5628 84.7824 56.6287 83.5208 57.9079 80.9846C59.187 78.4527 59.8243 74.4835 59.8243 69.0725C59.8243 63.6659 59.187 59.7011 57.9079 57.1868C56.6287 54.6725 54.5628 53.4154 51.7144 53.4154C48.8969 53.4154 46.8441 54.6549 45.5562 57.134C44.2683 59.6175 43.6265 63.5956 43.6265 69.0725Z" fill="black"/>
<path fill-rule="evenodd" clip-rule="evenodd" d="M94.1583 66.3692C94.1583 81.1033 88.4572 88.4659 77.055 88.4659C75.0638 88.4659 73.4858 88.2944 72.3166 87.9516V84.2681C73.6924 84.7164 75.2529 84.9406 77.0067 84.9406C81.1254 84.9406 84.2375 83.6659 86.343 81.1165C88.444 78.5626 89.5913 74.6549 89.7803 69.3846H89.4682C88.5276 70.8087 87.2704 71.8945 85.71 72.6417C84.1495 73.389 82.3869 73.7626 80.4309 73.7626C77.099 73.7626 74.4528 72.7648 72.4968 70.7736C70.5408 68.7824 69.5605 66 69.5605 62.4307C69.5605 58.5143 70.655 55.4242 72.844 53.156C75.0331 50.8923 77.9166 49.7582 81.4858 49.7582C84.0441 49.7582 86.2814 50.4132 88.1935 51.7275C90.11 53.0417 91.5825 54.9582 92.6111 57.4725C93.644 59.9868 94.1583 62.9538 94.1583 66.3692ZM81.4858 53.4154C79.0287 53.4154 77.1342 54.2022 75.7935 55.7846C74.4528 57.3626 73.7847 59.5604 73.7847 62.378C73.7847 64.8483 74.4045 66.7956 75.6397 68.211C76.8748 69.6264 78.7561 70.334 81.2792 70.334C82.844 70.334 84.2814 70.0175 85.5957 69.3846C86.9056 68.7472 87.9429 67.8813 88.699 66.7824C89.455 65.6835 89.8287 64.5318 89.8287 63.3318C89.8287 61.5252 89.477 59.8637 88.7737 58.334C88.0704 56.8043 87.0858 55.6044 85.8243 54.7296C84.5627 53.8505 83.1166 53.4154 81.4858 53.4154Z" fill="black"/>
</g>
<defs>
<linearGradient id="paint0_linear_2:1538" x1="0.0511849" y1="4.0721" x2="0.0511849" y2="160.487" gradientUnits="userSpaceOnUse">
<stop stop-color="#FFEFC7"/>
<stop offset="0.388" stop-color="#FF6A20"/>
<stop offset="1" stop-color="#CE3D1D"/>
</linearGradient>
<linearGradient id="paint1_linear_2:1538" x1="124.151" y1="5.65321" x2="8.7314" y2="5.65321" gradientUnits="userSpaceOnUse">
<stop stop-color="#F65A1F"/>
<stop offset="0.43" stop-color="#FF5E1E"/>
<stop offset="1" stop-color="#F65A1F"/>
</linearGradient>
<linearGradient id="paint2_linear_2:1538" x1="124.151" y1="5.65321" x2="8.7314" y2="5.65321" gradientUnits="userSpaceOnUse">
<stop stop-color="#F4531E"/>
<stop offset="0.436" stop-color="#FF6920"/>
<stop offset="1" stop-color="#F4531E"/>
</linearGradient>
<radialGradient id="paint3_radial_2:1538" cx="0" cy="0" r="1" gradientUnits="userSpaceOnUse" gradientTransform="translate(66.8361 32.0444) rotate(90) scale(75.9864)">
<stop stop-color="#F7F9F9"/>
<stop offset="1" stop-color="#B6BFBD"/>
</radialGradient>
<clipPath id="clip0_2:1538">
<rect width="130.989" height="160" fill="white"/>
</clipPath>
</defs>
</svg>
