<svg width="131" height="160" viewBox="0 0 131 160" fill="none" xmlns="http://www.w3.org/2000/svg">
<g clip-path="url(#clip0_2:1526)">
<path d="M1.80874 64.578C1.80874 103.013 30.5077 124.385 66.4417 160.081C103.202 124.657 131.07 103.664 131.07 64.578C131.07 28.8857 102.134 -0.0505371 66.4417 -0.0505371C30.7494 -0.0505371 1.80874 28.8857 1.80874 64.578Z" fill="url(#paint0_linear_2:1526)"/>
<path d="M66.4898 150.789C69.5887 147.831 72.6129 144.974 75.5623 142.191C104.819 114.569 124.151 96.3275 124.151 65.1231C124.151 33.3033 98.2612 7.41321 66.4415 7.41321C34.6173 7.41321 8.73155 33.3033 8.73155 65.1231C8.73155 95.0088 28.3447 113.928 55.492 140.117C59.0656 143.558 62.7228 147.092 66.4898 150.789Z" fill="url(#paint1_linear_2:1526)"/>
<path d="M66.4898 150.789C69.5887 147.831 72.6129 144.974 75.5623 142.191C104.819 114.569 124.151 96.3275 124.151 65.1231C124.151 33.3033 98.2612 7.41321 66.4415 7.41321C34.6173 7.41321 8.73155 33.3033 8.73155 65.1231C8.73155 95.0088 28.3447 113.928 55.492 140.117C59.0656 143.558 62.7228 147.092 66.4898 150.789Z" fill="url(#paint2_linear_2:1526)"/>
<path d="M15.9671 66.3801C15.9671 94.2526 38.5649 116.85 66.4418 116.85C94.3187 116.85 116.917 94.2526 116.917 66.3801C116.917 38.5032 94.3187 15.9054 66.4418 15.9054C38.5649 15.9054 15.9671 38.5032 15.9671 66.3801Z" fill="#A61600"/>
<path d="M22.6793 66.3802C22.6793 90.5429 42.2749 110.138 66.4419 110.138C90.6046 110.138 110.2 90.5429 110.2 66.3802C110.2 42.2132 90.6046 22.6176 66.4419 22.6176C42.2749 22.6176 22.6793 42.2132 22.6793 66.3802Z" fill="url(#paint3_radial_2:1526)"/>
<path d="M53.8461 89.3494H49.6747V62.5098C49.6747 60.2813 49.7406 58.167 49.8768 56.1758C49.5164 56.5362 49.1164 56.9143 48.6681 57.3099C48.2197 57.7055 46.1801 59.3758 42.5406 62.3297L40.2725 59.3934L50.2373 51.6923H53.8461V89.3494Z" fill="black"/>
<path fill-rule="evenodd" clip-rule="evenodd" d="M93.1208 70.4703C93.1208 76.9758 92.0966 81.8373 90.0439 85.0461C87.9911 88.2593 84.8527 89.8637 80.6329 89.8637C76.5802 89.8637 73.4944 88.2197 71.3845 84.9318C69.2747 81.6439 68.2153 76.822 68.2153 70.4703C68.2153 63.9121 69.2395 59.0417 71.2835 55.8681C73.323 52.6901 76.4395 51.1033 80.6329 51.1033C84.7164 51.1033 87.8197 52.7604 89.9428 56.0703C92.0615 59.3846 93.1208 64.1846 93.1208 70.4703ZM72.545 70.4703C72.545 75.9473 73.1868 79.9341 74.4747 82.4352C75.7626 84.9319 77.8153 86.1802 80.6329 86.1802C83.4813 86.1802 85.5472 84.9143 86.8263 82.3824C88.1054 79.8505 88.7428 75.8769 88.7428 70.4703C88.7428 65.0593 88.1054 61.0989 86.8263 58.5846C85.5472 56.0703 83.4813 54.8088 80.6329 54.8088C77.8153 54.8088 75.7626 56.0527 74.4747 58.5319C73.1868 61.0154 72.545 64.9934 72.545 70.4703Z" fill="black"/>
</g>
<defs>
<linearGradient id="paint0_linear_2:1526" x1="0.0518249" y1="4.0743" x2="0.0518249" y2="160.49" gradientUnits="userSpaceOnUse">
<stop stop-color="#FFD3C8"/>
<stop offset="0.388" stop-color="#FF3918"/>
<stop offset="1" stop-color="#C9281A"/>
</linearGradient>
<linearGradient id="paint1_linear_2:1526" x1="124.151" y1="5.65541" x2="8.73199" y2="5.65541" gradientUnits="userSpaceOnUse">
<stop stop-color="#F83118"/>
<stop offset="0.43" stop-color="#FF3418"/>
<stop offset="1" stop-color="#F83118"/>
</linearGradient>
<linearGradient id="paint2_linear_2:1526" x1="124.151" y1="5.65541" x2="8.73199" y2="5.65541" gradientUnits="userSpaceOnUse">
<stop stop-color="#F83118"/>
<stop offset="0.436" stop-color="#FF3B19"/>
<stop offset="1" stop-color="#F83118"/>
</linearGradient>
<radialGradient id="paint3_radial_2:1526" cx="0" cy="0" r="1" gradientUnits="userSpaceOnUse" gradientTransform="translate(66.838 32.0466) rotate(90) scale(75.9868)">
<stop stop-color="#F7F9F9"/>
<stop offset="1" stop-color="#B6BFBD"/>
</radialGradient>
<clipPath id="clip0_2:1526">
<rect width="130.989" height="160" fill="white"/>
</clipPath>
</defs>
</svg>
