<svg width="131" height="160" viewBox="0 0 131 160" fill="none" xmlns="http://www.w3.org/2000/svg">
<g clip-path="url(#clip0_2:1514)">
<path d="M1.81122 64.5759C1.81122 103.011 30.5101 124.382 66.4398 160.079C103.205 124.651 131.068 103.662 131.068 64.5759C131.068 28.8835 102.132 -0.0527344 66.4398 -0.0527344C30.7475 -0.0527344 1.81122 28.8835 1.81122 64.5759Z" fill="url(#paint0_linear_2:1514)"/>
<path d="M66.4884 150.791C69.5917 147.829 72.6114 144.971 75.5653 142.189C104.822 114.567 124.15 96.3253 124.15 65.1209C124.15 33.3011 98.2642 7.41101 66.44 7.41101C34.6202 7.41101 8.73011 33.3011 8.73011 65.1209C8.73011 95.0066 28.3477 113.93 55.495 140.119C59.0642 143.556 62.7257 147.09 66.4884 150.791Z" fill="url(#paint1_linear_2:1514)"/>
<path d="M66.4884 150.791C69.5917 147.829 72.6114 144.971 75.5653 142.189C104.822 114.567 124.15 96.3253 124.15 65.1209C124.15 33.3011 98.2642 7.41101 66.44 7.41101C34.6202 7.41101 8.73011 33.3011 8.73011 65.1209C8.73011 95.0066 28.3477 113.93 55.495 140.119C59.0642 143.556 62.7257 147.09 66.4884 150.791Z" fill="url(#paint2_linear_2:1514)"/>
<path d="M15.9695 66.3781C15.9695 94.2506 38.5673 116.848 66.4398 116.848C94.3167 116.848 116.915 94.2506 116.915 66.3781C116.915 38.5011 94.3167 15.9033 66.4398 15.9033C38.5673 15.9033 15.9695 38.5011 15.9695 66.3781Z" fill="#A60027"/>
<path d="M22.6818 66.3781C22.6818 90.5451 42.2774 110.136 66.4444 110.136C90.6114 110.136 110.203 90.5451 110.203 66.3781C110.203 42.2111 90.6114 22.6199 66.4444 22.6199C42.2774 22.6199 22.6818 42.2111 22.6818 66.3781Z" fill="url(#paint3_radial_2:1514)"/>
<path d="M55.6923 83.2044H51.5209V56.3648C51.5209 54.1363 51.5868 52.022 51.723 50.0308C51.3626 50.3912 50.9626 50.7692 50.5142 51.1648C50.0703 51.5604 48.0263 53.2308 44.3868 56.1846L42.1187 53.2483L52.0879 45.5472H55.6923V83.2044Z" fill="black"/>
<path d="M85.8505 83.2044H81.6791V56.3648C81.6791 54.1363 81.7494 52.022 81.8856 50.0308C81.5252 50.3912 81.1208 50.7692 80.6725 51.1648C80.2285 51.5604 78.1846 53.2308 74.545 56.1846L72.2769 53.2483L82.2461 45.5472H85.8505V83.2044Z" fill="black"/>
</g>
<defs>
<linearGradient id="paint0_linear_2:1514" x1="0.0538543" y1="4.0721" x2="0.0538543" y2="160.488" gradientUnits="userSpaceOnUse">
<stop stop-color="#FFC4CC"/>
<stop offset="0.388" stop-color="#FF2F40"/>
<stop offset="1" stop-color="#CB2725"/>
</linearGradient>
<linearGradient id="paint1_linear_2:1514" x1="124.151" y1="5.65453" x2="8.73143" y2="5.65453" gradientUnits="userSpaceOnUse">
<stop stop-color="#F82D2F"/>
<stop offset="0.43" stop-color="#FF2E3F"/>
<stop offset="1" stop-color="#F82D2F"/>
</linearGradient>
<linearGradient id="paint2_linear_2:1514" x1="124.151" y1="5.65453" x2="8.73143" y2="5.65453" gradientUnits="userSpaceOnUse">
<stop stop-color="#F82D2F"/>
<stop offset="0.436" stop-color="#FF335A"/>
<stop offset="1" stop-color="#F82D2F"/>
</linearGradient>
<radialGradient id="paint3_radial_2:1514" cx="0" cy="0" r="1" gradientUnits="userSpaceOnUse" gradientTransform="translate(66.8391 32.0493) rotate(90) scale(75.9855)">
<stop stop-color="#F7F9F9"/>
<stop offset="1" stop-color="#B6BFBD"/>
</radialGradient>
<clipPath id="clip0_2:1514">
<rect width="130.989" height="160" fill="white"/>
</clipPath>
</defs>
</svg>
