<svg width="131" height="160" viewBox="0 0 131 160" fill="none" xmlns="http://www.w3.org/2000/svg">
<g clip-path="url(#clip0_2:1502)">
<path d="M1.81122 64.5759C1.81122 103.011 30.5101 124.382 66.4398 160.079C103.205 124.651 131.068 103.662 131.068 64.5759C131.068 28.8835 102.132 -0.0527344 66.4398 -0.0527344C30.7431 -0.0527344 1.81122 28.8835 1.81122 64.5759Z" fill="url(#paint0_linear_2:1502)"/>
<path d="M66.4879 150.791C69.5868 147.829 72.6109 144.971 75.5604 142.189C104.822 114.567 124.149 96.3253 124.149 65.1209C124.149 33.3011 98.2593 7.41101 66.4395 7.41101C34.6153 7.41101 8.72963 33.3011 8.72963 65.1209C8.72963 95.0066 28.3428 113.93 55.4945 140.119C59.0593 143.556 62.7208 147.09 66.4879 150.791Z" fill="url(#paint1_linear_2:1502)"/>
<path d="M66.4879 150.791C69.5868 147.829 72.6109 144.971 75.5604 142.189C104.822 114.567 124.149 96.3253 124.149 65.1209C124.149 33.3011 98.2593 7.41101 66.4395 7.41101C34.6153 7.41101 8.72963 33.3011 8.72963 65.1209C8.72963 95.0066 28.3428 113.93 55.4945 140.119C59.0593 143.556 62.7208 147.09 66.4879 150.791Z" fill="url(#paint2_linear_2:1502)"/>
<path d="M15.9651 66.3781C15.9651 94.2506 38.5629 116.848 66.4398 116.848C94.3167 116.848 116.915 94.2506 116.915 66.3781C116.915 38.5011 94.3167 15.9033 66.4398 15.9033C38.5629 15.9033 15.9651 38.5011 15.9651 66.3781Z" fill="#B3005A"/>
<path d="M22.6817 66.3781C22.6817 90.5451 42.2774 110.136 66.44 110.136C90.607 110.136 110.198 90.5451 110.198 66.3781C110.198 42.2111 90.607 22.6199 66.44 22.6199C42.2774 22.6199 22.6817 42.2111 22.6817 66.3781Z" fill="url(#paint3_radial_2:1502)"/>
<path d="M51.2352 84.2242H47.0638V57.3846C47.0638 55.156 47.1341 53.0417 47.2704 51.0505C46.91 51.411 46.5056 51.789 46.0572 52.1846C45.6133 52.5802 43.5693 54.2549 39.9298 57.2044L37.6616 54.2681L47.6308 46.567H51.2352V84.2242Z" fill="black"/>
<path d="M90.3078 84.2242H65.5562V80.5407L75.4726 70.5714C78.4924 67.5165 80.4836 65.3363 81.4462 64.0308C82.4089 62.7253 83.1298 61.4549 83.6089 60.2198C84.0924 58.9846 84.3298 57.6527 84.3298 56.2286C84.3298 54.2198 83.7232 52.6242 82.5012 51.4505C81.2836 50.2725 79.5913 49.6835 77.4287 49.6835C75.8682 49.6835 74.3869 49.9429 72.9847 50.4571C71.5869 50.9714 70.0309 51.9077 68.3122 53.2659L66.0441 50.356C69.5122 47.4681 73.2924 46.0264 77.3759 46.0264C80.9144 46.0264 83.688 46.9319 85.6968 48.7472C87.7056 50.5582 88.7122 52.989 88.7122 56.0484C88.7122 58.4352 88.0397 60.7956 86.7034 63.1297C85.3627 65.4637 82.8573 68.4176 79.1825 71.9912L70.9408 80.0528V80.255H90.3078V84.2242Z" fill="black"/>
</g>
<defs>
<linearGradient id="paint0_linear_2:1502" x1="0.0525351" y1="4.0721" x2="0.0525351" y2="160.488" gradientUnits="userSpaceOnUse">
<stop stop-color="#FECBE2"/>
<stop offset="0.388" stop-color="#FE347E"/>
<stop offset="1" stop-color="#D42B61"/>
</linearGradient>
<linearGradient id="paint1_linear_2:1502" x1="124.149" y1="5.65453" x2="8.72918" y2="5.65453" gradientUnits="userSpaceOnUse">
<stop stop-color="#FF2F6D"/>
<stop offset="0.43" stop-color="#FE347F"/>
<stop offset="1" stop-color="#FF2F6D"/>
</linearGradient>
<linearGradient id="paint2_linear_2:1502" x1="124.149" y1="5.65453" x2="8.72918" y2="5.65453" gradientUnits="userSpaceOnUse">
<stop stop-color="#FF2F6D"/>
<stop offset="0.436" stop-color="#FC3A99"/>
<stop offset="1" stop-color="#FF2F6D"/>
</linearGradient>
<radialGradient id="paint3_radial_2:1502" cx="0" cy="0" r="1" gradientUnits="userSpaceOnUse" gradientTransform="translate(66.8378 32.0493) rotate(90) scale(75.9855)">
<stop stop-color="#F7F9F9"/>
<stop offset="1" stop-color="#B6BFBD"/>
</radialGradient>
<clipPath id="clip0_2:1502">
<rect width="130.989" height="160" fill="white"/>
</clipPath>
</defs>
</svg>
