<svg width="131" height="160" viewBox="0 0 131 160" fill="none" xmlns="http://www.w3.org/2000/svg">
<g clip-path="url(#clip0_2:1490)">
<path d="M1.81122 64.5759C1.81122 103.011 30.5145 124.382 66.4442 160.079C103.205 124.651 131.068 103.662 131.068 64.5759C131.068 28.8835 102.136 -0.0527344 66.4442 -0.0527344C30.7519 -0.0527344 1.81122 28.8835 1.81122 64.5759Z" fill="url(#paint0_linear_2:1490)"/>
<path d="M66.4927 150.791C69.5916 147.829 72.6158 144.971 75.5653 142.189C104.822 114.567 124.154 96.3253 124.154 65.1209C124.154 33.3011 98.2642 7.41101 66.4444 7.41101C34.6246 7.41101 8.73451 33.3011 8.73451 65.1209C8.73451 95.0066 28.3477 113.93 55.495 140.119C59.0686 143.556 62.7257 147.09 66.4927 150.791Z" fill="url(#paint1_linear_2:1490)"/>
<path d="M66.4927 150.791C69.5916 147.829 72.6158 144.971 75.5653 142.189C104.822 114.567 124.154 96.3253 124.154 65.1209C124.154 33.3011 98.2642 7.41101 66.4444 7.41101C34.6246 7.41101 8.73451 33.3011 8.73451 65.1209C8.73451 95.0066 28.3477 113.93 55.495 140.119C59.0686 143.556 62.7257 147.09 66.4927 150.791Z" fill="url(#paint2_linear_2:1490)"/>
<path d="M15.9695 66.3781C15.9695 94.2506 38.5673 116.848 66.4442 116.848C94.3211 116.848 116.919 94.2506 116.919 66.3781C116.919 38.5011 94.3211 15.9033 66.4442 15.9033C38.5673 15.9033 15.9695 38.5011 15.9695 66.3781Z" fill="#8C0081"/>
<path d="M22.6862 66.3781C22.6862 90.5451 42.2774 110.136 66.4444 110.136C90.6114 110.136 110.203 90.5451 110.203 66.3781C110.203 42.2111 90.6114 22.6199 66.4444 22.6199C42.2774 22.6199 22.6862 42.2111 22.6862 66.3781Z" fill="url(#paint3_radial_2:1490)"/>
<path d="M51.3622 88.6638H47.1908V61.8242C47.1908 59.5956 47.2611 57.4813 47.3974 55.4901C47.0369 55.8506 46.6325 56.2286 46.1886 56.6242C45.7402 57.0198 43.6963 58.6945 40.0567 61.644L37.793 58.7077L47.7578 51.0066H51.3622V88.6638Z" fill="black"/>
<path d="M89.0194 59.8681C89.0194 62.2725 88.3469 64.2374 86.9974 65.767C85.648 67.2967 83.7403 68.3165 81.2656 68.8308V69.0374C84.2897 69.4154 86.5271 70.378 87.9864 71.9209C89.4502 73.4681 90.1798 75.4945 90.1798 78C90.1798 81.5868 88.9315 84.3473 86.4436 86.2813C83.9557 88.211 80.4172 89.178 75.8326 89.178C73.8414 89.178 72.0172 89.0286 70.3601 88.7253C68.7029 88.4264 67.0941 87.8989 65.5293 87.1429V83.0725C67.1601 83.8813 68.9007 84.4967 70.7469 84.9143C72.593 85.3363 74.3381 85.5473 75.9864 85.5473C82.4919 85.5473 85.7491 82.9978 85.7491 77.8989C85.7491 73.3319 82.1579 71.0462 74.9798 71.0462H71.2744V67.3627H75.0326C77.9689 67.3627 80.2941 66.7165 82.0128 65.4198C83.7315 64.1231 84.5886 62.3253 84.5886 60.022C84.5886 58.1846 83.9557 56.7429 82.6941 55.6967C81.4326 54.6506 79.7227 54.1231 77.5557 54.1231C75.9073 54.1231 74.3557 54.3473 72.8963 54.7956C71.437 55.2396 69.7711 56.066 67.8985 57.266L65.7359 54.3824C67.2831 53.1649 69.0634 52.2066 71.0809 51.5121C73.0985 50.8132 75.2216 50.4659 77.4546 50.4659C81.1117 50.4659 83.9556 51.3055 85.9776 52.9802C88.004 54.6506 89.0194 56.9495 89.0194 59.8681Z" fill="black"/>
</g>
<defs>
<linearGradient id="paint0_linear_2:1490" x1="0.0547307" y1="4.0721" x2="0.0547307" y2="160.488" gradientUnits="userSpaceOnUse">
<stop stop-color="#FAC8E0"/>
<stop offset="0.388" stop-color="#C24DA6"/>
<stop offset="1" stop-color="#942A96"/>
</linearGradient>
<linearGradient id="paint1_linear_2:1490" x1="124.153" y1="5.65453" x2="8.73539" y2="5.65453" gradientUnits="userSpaceOnUse">
<stop stop-color="#AF3EA0"/>
<stop offset="0.43" stop-color="#B447A3"/>
<stop offset="1" stop-color="#AF3EA0"/>
</linearGradient>
<linearGradient id="paint2_linear_2:1490" x1="124.153" y1="5.65453" x2="8.73539" y2="5.65453" gradientUnits="userSpaceOnUse">
<stop stop-color="#AF3EA0"/>
<stop offset="0.436" stop-color="#B54DA6"/>
<stop offset="1" stop-color="#AF3EA0"/>
</linearGradient>
<radialGradient id="paint3_radial_2:1490" cx="0" cy="0" r="1" gradientUnits="userSpaceOnUse" gradientTransform="translate(66.8422 32.0493) rotate(90) scale(75.9851)">
<stop stop-color="#F7F9F9"/>
<stop offset="1" stop-color="#B6BFBD"/>
</radialGradient>
<clipPath id="clip0_2:1490">
<rect width="130.989" height="160" fill="white"/>
</clipPath>
</defs>
</svg>
