<svg width="131" height="160" viewBox="0 0 131 160" fill="none" xmlns="http://www.w3.org/2000/svg">
<g clip-path="url(#clip0_2:1478)">
<path d="M1.80873 64.5781C1.80873 103.013 30.5077 124.385 66.4417 160.081C103.202 124.653 131.07 103.664 131.07 64.5781C131.07 28.8857 102.13 -0.0505371 66.4417 -0.0505371C30.745 -0.0505371 1.80873 28.8857 1.80873 64.5781Z" fill="url(#paint0_linear_2:1478)"/>
<path d="M66.4854 150.793C69.5887 147.831 72.6129 144.974 75.5623 142.191C104.824 114.569 124.147 96.3275 124.147 65.1231C124.147 33.3033 98.2612 7.41321 66.4415 7.41321C34.6173 7.41321 8.73155 33.3033 8.73155 65.1231C8.73155 95.0088 28.3447 113.932 55.492 140.121C59.0612 143.558 62.7228 147.092 66.4854 150.793Z" fill="url(#paint1_linear_2:1478)"/>
<path d="M66.4854 150.793C69.5887 147.831 72.6129 144.974 75.5623 142.191C104.824 114.569 124.147 96.3275 124.147 65.1231C124.147 33.3033 98.2612 7.41321 66.4415 7.41321C34.6173 7.41321 8.73155 33.3033 8.73155 65.1231C8.73155 95.0088 28.3447 113.932 55.492 140.121C59.0612 143.558 62.7228 147.092 66.4854 150.793Z" fill="url(#paint2_linear_2:1478)"/>
<path d="M15.9671 66.3801C15.9671 94.2527 38.5649 116.85 66.4418 116.85C94.3187 116.85 116.912 94.2527 116.912 66.3801C116.912 38.5032 94.3187 15.9054 66.4418 15.9054C38.5649 15.9054 15.9671 38.5032 15.9671 66.3801Z" fill="#74008C"/>
<path d="M22.6793 66.3803C22.6793 90.5473 42.2749 110.139 66.4419 110.139C90.609 110.139 110.2 90.5473 110.2 66.3803C110.2 42.2133 90.609 22.6221 66.4419 22.6221C42.2749 22.6221 22.6793 42.2133 22.6793 66.3803Z" fill="url(#paint3_radial_2:1478)"/>
<path d="M50.9144 88.356H46.743V61.5165C46.743 59.2879 46.8133 57.1736 46.9496 55.1824C46.5892 55.5428 46.1848 55.9208 45.7408 56.3164C45.2925 56.712 43.2485 58.3868 39.6089 61.3362L37.3452 58.4L47.31 50.7032H50.9144V88.356Z" fill="black"/>
<path fill-rule="evenodd" clip-rule="evenodd" d="M91.7627 79.7011H86.1759V88.356H82.0792V79.7011H63.7671V75.9692L81.644 50.4967H86.1759V75.811H91.7627V79.7011ZM82.0792 75.811V63.2967C82.0792 60.8396 82.1671 58.066 82.3385 54.9758H82.1319C81.3099 56.6242 80.5363 57.9912 79.8154 59.0725L68.044 75.811H82.0792Z" fill="black"/>
</g>
<defs>
<linearGradient id="paint0_linear_2:1478" x1="0.0513712" y1="4.0743" x2="0.0513712" y2="160.49" gradientUnits="userSpaceOnUse">
<stop stop-color="#E8CEE5"/>
<stop offset="0.388" stop-color="#934DA7"/>
<stop offset="1" stop-color="#61278D"/>
</linearGradient>
<linearGradient id="paint1_linear_2:1478" x1="124.149" y1="5.65672" x2="8.72979" y2="5.65672" gradientUnits="userSpaceOnUse">
<stop stop-color="#833FA0"/>
<stop offset="0.43" stop-color="#8346A4"/>
<stop offset="1" stop-color="#833FA0"/>
</linearGradient>
<linearGradient id="paint2_linear_2:1478" x1="124.149" y1="5.65672" x2="8.72979" y2="5.65672" gradientUnits="userSpaceOnUse">
<stop stop-color="#863FA1"/>
<stop offset="0.436" stop-color="#934EA8"/>
<stop offset="1" stop-color="#863FA1"/>
</linearGradient>
<radialGradient id="paint3_radial_2:1478" cx="0" cy="0" r="1" gradientUnits="userSpaceOnUse" gradientTransform="translate(66.838 32.0515) rotate(90) scale(75.9851)">
<stop stop-color="#F7F9F9"/>
<stop offset="1" stop-color="#B6BFBD"/>
</radialGradient>
<clipPath id="clip0_2:1478">
<rect width="130.989" height="160" fill="white"/>
</clipPath>
</defs>
</svg>
