<svg width="131" height="160" viewBox="0 0 131 160" fill="none" xmlns="http://www.w3.org/2000/svg">
<g clip-path="url(#clip0_2:1468)">
<path d="M1.80874 64.5781C1.80874 103.013 30.5077 124.385 66.4373 160.081C103.202 124.653 131.07 103.664 131.07 64.5781C131.07 28.8857 102.13 -0.0505371 66.4373 -0.0505371C30.745 -0.0505371 1.80874 28.8857 1.80874 64.5781Z" fill="url(#paint0_linear_2:1468)"/>
<path d="M66.4903 150.793C69.5892 147.831 72.6134 144.974 75.5585 142.191C104.82 114.569 124.152 96.3275 124.152 65.1231C124.152 33.3033 98.2618 7.41321 66.4376 7.4176C34.6178 7.4176 8.73209 33.3033 8.73209 65.1231C8.73209 95.0088 28.3453 113.932 55.4925 140.121C59.0618 143.558 62.7233 147.092 66.4903 150.793Z" fill="url(#paint1_linear_2:1468)"/>
<path d="M66.4903 150.793C69.5892 147.831 72.6134 144.974 75.5585 142.191C104.82 114.569 124.152 96.3275 124.152 65.1231C124.152 33.3033 98.2618 7.41321 66.4376 7.4176C34.6178 7.4176 8.73209 33.3033 8.73209 65.1231C8.73209 95.0088 28.3453 113.932 55.4925 140.121C59.0618 143.558 62.7233 147.092 66.4903 150.793Z" fill="url(#paint2_linear_2:1468)"/>
<path d="M15.967 66.3801C15.967 94.2527 38.5649 116.85 66.4374 116.85C94.3143 116.85 116.912 94.2527 116.912 66.3801C116.912 38.5032 94.3143 15.9054 66.4374 15.9054C38.5649 15.9054 15.967 38.5032 15.967 66.3801Z" fill="#450052"/>
<path d="M22.6788 66.3802C22.6788 90.5472 42.2745 110.138 66.4371 110.138C90.6041 110.138 110.2 90.5472 110.2 66.3802C110.2 42.2132 90.6041 22.6219 66.4371 22.6219C42.2745 22.6219 22.6788 42.2132 22.6788 66.3802Z" fill="url(#paint3_radial_2:1468)"/>
<path d="M51.8461 88.4746H47.6703V61.6351C47.6703 59.4021 47.7406 57.2922 47.8768 55.301C47.5164 55.6614 47.112 56.0394 46.6681 56.435C46.2197 56.8307 44.1758 58.501 40.5362 61.4548L38.2725 58.5186L48.2373 50.8175H51.8461V88.4746Z" fill="black"/>
<path d="M77.9338 65.4724C81.903 65.4724 85.0195 66.457 87.2964 68.4219C89.5734 70.3911 90.7074 73.0812 90.7074 76.4966C90.7074 80.3955 89.4679 83.4504 86.9888 85.6658C84.5053 87.8812 81.0855 88.9889 76.725 88.9889C72.4833 88.9889 69.2481 88.312 67.0151 86.9537V82.8351C68.2151 83.6043 69.7096 84.2109 71.4943 84.6505C73.2833 85.0856 75.0415 85.3054 76.7778 85.3054C79.7975 85.3054 82.1448 84.5933 83.8195 83.1691C85.4943 81.745 86.3294 79.6834 86.3294 76.9845C86.3294 71.7317 83.1118 69.1076 76.6723 69.1076C75.0415 69.1076 72.8613 69.3537 70.1316 69.8504L67.9162 68.4351L69.3316 50.8175H88.0569V54.7603H72.9887L72.0349 66.0658C74.0129 65.6702 75.9778 65.4724 77.9338 65.4724Z" fill="black"/>
</g>
<defs>
<linearGradient id="paint0_linear_2:1468" x1="0.0509439" y1="4.0743" x2="0.0509439" y2="160.49" gradientUnits="userSpaceOnUse">
<stop stop-color="#DAC9E4"/>
<stop offset="0.388" stop-color="#6C399E"/>
<stop offset="1" stop-color="#481440"/>
</linearGradient>
<linearGradient id="paint1_linear_2:1468" x1="124.15" y1="5.65717" x2="8.73166" y2="5.65717" gradientUnits="userSpaceOnUse">
<stop stop-color="#463DA0"/>
<stop offset="0.43" stop-color="#4844A4"/>
<stop offset="1" stop-color="#463DA0"/>
</linearGradient>
<linearGradient id="paint2_linear_2:1468" x1="124.15" y1="5.65717" x2="8.73166" y2="5.65717" gradientUnits="userSpaceOnUse">
<stop stop-color="#51226D"/>
<stop offset="0.436" stop-color="#7D3EA0"/>
<stop offset="1" stop-color="#532168"/>
</linearGradient>
<radialGradient id="paint3_radial_2:1468" cx="0" cy="0" r="1" gradientUnits="userSpaceOnUse" gradientTransform="translate(66.8358 32.0514) rotate(90) scale(75.9851)">
<stop stop-color="#F7F9F9"/>
<stop offset="1" stop-color="#B6BFBD"/>
</radialGradient>
<clipPath id="clip0_2:1468">
<rect width="130.989" height="160" fill="white"/>
</clipPath>
</defs>
</svg>
