<svg width="131" height="160" viewBox="0 0 131 160" fill="none" xmlns="http://www.w3.org/2000/svg">
<g clip-path="url(#clip0_2:1418)">
<path d="M1.81122 64.5759C1.81122 103.011 30.5101 124.382 66.4398 160.079C103.205 124.655 131.068 103.662 131.068 64.5759C131.068 28.8835 102.132 -0.0527344 66.4398 -0.0527344C30.7475 -0.0527344 1.81122 28.8835 1.81122 64.5759Z" fill="url(#paint0_linear_2:1418)"/>
<path d="M66.4879 150.791C69.5912 147.829 72.6109 144.976 75.5604 142.189C104.822 114.571 124.149 96.3253 124.149 65.1253C124.149 33.3011 98.2637 7.41541 66.4395 7.41541C34.6197 7.41541 8.72963 33.3055 8.72963 65.1253C8.72963 95.0066 28.3472 113.93 55.4945 140.119C59.0637 143.56 62.7252 147.09 66.4879 150.791Z" fill="url(#paint1_linear_2:1418)"/>
<path d="M66.4879 150.791C69.5912 147.829 72.6109 144.976 75.5604 142.189C104.822 114.571 124.149 96.3253 124.149 65.1253C124.149 33.3011 98.2637 7.41541 66.4395 7.41541C34.6197 7.41541 8.72963 33.3055 8.72963 65.1253C8.72963 95.0066 28.3472 113.93 55.4945 140.119C59.0637 143.56 62.7252 147.09 66.4879 150.791Z" fill="url(#paint2_linear_2:1418)"/>
<path d="M15.9695 66.378C15.9695 94.2505 38.5673 116.848 66.4398 116.848C94.3167 116.848 116.915 94.2505 116.915 66.378C116.915 38.5011 94.3167 15.9033 66.4398 15.9033C38.5673 15.9033 15.9695 38.5011 15.9695 66.378Z" fill="#1A008C"/>
<path d="M22.6818 66.3781C22.6818 90.5451 42.2774 110.136 66.44 110.136C90.607 110.136 110.198 90.5451 110.198 66.3781C110.198 42.2111 90.607 22.6155 66.44 22.6155C42.2774 22.6155 22.6818 42.2111 22.6818 66.3781Z" fill="url(#paint3_radial_2:1418)"/>
<path d="M54.6195 86.2154H50.4437V59.3758C50.4437 57.1473 50.514 55.033 50.6503 53.0417C50.2898 53.4022 49.8854 53.7802 49.4415 54.1758C48.9931 54.5714 46.9492 56.2461 43.3096 59.1956L41.0459 56.2593L51.0107 48.5626H54.6195V86.2154Z" fill="black"/>
<path d="M73.7009 86.2154L89.3097 52.5011H68.7822V48.5626H93.8416V51.9868L78.4438 86.2154H73.7009Z" fill="black"/>
</g>
<defs>
<linearGradient id="paint0_linear_2:1418" x1="0.0520917" y1="4.07254" x2="0.0520917" y2="160.489" gradientUnits="userSpaceOnUse">
<stop stop-color="#CFDDF0"/>
<stop offset="0.388" stop-color="#284FAA"/>
<stop offset="1" stop-color="#112888"/>
</linearGradient>
<linearGradient id="paint1_linear_2:1418" x1="124.151" y1="5.65585" x2="8.73138" y2="5.65585" gradientUnits="userSpaceOnUse">
<stop stop-color="#213C9F"/>
<stop offset="0.43" stop-color="#2443A3"/>
<stop offset="1" stop-color="#213C9F"/>
</linearGradient>
<linearGradient id="paint2_linear_2:1418" x1="124.151" y1="5.65585" x2="8.73138" y2="5.65585" gradientUnits="userSpaceOnUse">
<stop stop-color="#213C9F"/>
<stop offset="0.436" stop-color="#295CB1"/>
<stop offset="1" stop-color="#213C9F"/>
</linearGradient>
<radialGradient id="paint3_radial_2:1418" cx="0" cy="0" r="1" gradientUnits="userSpaceOnUse" gradientTransform="translate(66.8369 32.0476) rotate(90) scale(75.9855)">
<stop stop-color="#F7F9F9"/>
<stop offset="1" stop-color="#B6BFBD"/>
</radialGradient>
<clipPath id="clip0_2:1418">
<rect width="130.989" height="160" fill="white"/>
</clipPath>
</defs>
</svg>
