<svg width="131" height="160" viewBox="0 0 131 160" fill="none" xmlns="http://www.w3.org/2000/svg">
<g clip-path="url(#clip0_2:1428)">
<path d="M1.81122 64.5759C1.81122 103.011 30.5101 124.382 66.4398 160.079C103.205 124.655 131.068 103.662 131.068 64.5759C131.068 28.8835 102.132 -0.0527344 66.4398 -0.0527344C30.7475 -0.0527344 1.81122 28.8835 1.81122 64.5759Z" fill="url(#paint0_linear_2:1428)"/>
<path d="M66.4884 150.791C69.5873 147.829 72.6115 144.976 75.5609 142.189C104.822 114.571 124.15 96.3253 124.15 65.1253C124.15 33.3055 98.2598 7.41541 66.44 7.41541C34.6202 7.41541 8.73014 33.3055 8.73014 65.1253C8.73014 95.0066 28.3433 113.93 55.4906 140.119C59.0598 143.56 62.7213 147.09 66.4884 150.791Z" fill="url(#paint1_linear_2:1428)"/>
<path d="M66.4884 150.791C69.5873 147.829 72.6115 144.976 75.5609 142.189C104.822 114.571 124.15 96.3253 124.15 65.1253C124.15 33.3055 98.2598 7.41541 66.44 7.41541C34.6202 7.41541 8.73014 33.3055 8.73014 65.1253C8.73014 95.0066 28.3433 113.93 55.4906 140.119C59.0598 143.56 62.7213 147.09 66.4884 150.791Z" fill="url(#paint2_linear_2:1428)"/>
<path d="M15.9651 66.378C15.9651 94.2505 38.5673 116.848 66.4398 116.848C94.3167 116.848 116.91 94.2505 116.91 66.378C116.91 38.5011 94.3167 15.9033 66.4398 15.9033C38.5673 15.9033 15.9651 38.5011 15.9651 66.378Z" fill="#00468C"/>
<path d="M22.6818 66.3781C22.6818 90.5451 42.273 110.136 66.44 110.136C90.607 110.136 110.198 90.5451 110.198 66.3781C110.198 42.2111 90.607 22.6155 66.44 22.6155C42.273 22.6155 22.6818 42.2111 22.6818 66.3781Z" fill="url(#paint3_radial_2:1428)"/>
<path d="M49.7406 86.1407H45.5648V59.3055C45.5648 57.0726 45.6351 54.9626 45.7714 52.967C45.4109 53.3319 45.0065 53.7055 44.5626 54.1011C44.1142 54.4967 42.0747 56.1714 38.4307 59.1253L36.167 56.189L46.1318 48.4879H49.7406V86.1407Z" fill="black"/>
<path fill-rule="evenodd" clip-rule="evenodd" d="M76.523 47.9473C79.9604 47.9473 82.6813 48.7473 84.6901 50.3429C86.6989 51.9385 87.7011 54.1451 87.7011 56.9627C87.7011 58.8176 87.1296 60.5055 85.978 62.0352C84.8263 63.5648 82.989 64.9539 80.4659 66.2066C83.5209 67.6659 85.6923 69.2 86.9802 70.8044C88.2681 72.4088 88.9143 74.2681 88.9143 76.3824C88.9143 79.5077 87.8241 82 85.6439 83.8638C83.4637 85.7275 80.4747 86.6594 76.6813 86.6594C72.6637 86.6594 69.5692 85.7758 67.4066 84.0176C65.2439 82.2594 64.1626 79.7626 64.1626 76.5363C64.1626 72.2242 66.7912 68.8703 72.0439 66.466C69.6747 65.1253 67.9736 63.6791 66.9451 62.1231C65.9121 60.5714 65.3978 58.8308 65.3978 56.9099C65.3978 54.1802 66.4088 52.0044 68.4264 50.3824C70.444 48.756 73.1428 47.9473 76.523 47.9473ZM68.3868 76.6374C68.3868 78.6989 69.1033 80.3033 70.5362 81.455C71.9692 82.6066 73.9824 83.1825 76.5758 83.1825C79.134 83.1825 81.1253 82.5802 82.5539 81.3758C83.978 80.1758 84.6901 78.5275 84.6901 76.4308C84.6901 74.7692 84.0176 73.2879 82.6813 71.9912C81.3406 70.6945 79.0066 69.4374 75.6747 68.2154C73.1165 69.3143 71.2615 70.5319 70.1099 71.8594C68.9626 73.1912 68.3868 74.7824 68.3868 76.6374ZM76.4747 51.4242C74.3252 51.4242 72.6461 51.9385 71.4241 52.967C70.2066 54 69.5956 55.3758 69.5956 57.0901C69.5956 58.6725 70.1011 60.0264 71.1165 61.1605C72.1275 62.2945 74 63.4242 76.7297 64.5582C79.1868 63.5297 80.9231 62.422 81.9473 61.2352C82.967 60.0528 83.4769 58.6725 83.4769 57.0901C83.4769 55.3539 82.8571 53.978 81.6132 52.9583C80.3648 51.9341 78.6549 51.4242 76.4747 51.4242Z" fill="black"/>
</g>
<defs>
<linearGradient id="paint0_linear_2:1428" x1="0.0520917" y1="4.07254" x2="0.0520917" y2="160.489" gradientUnits="userSpaceOnUse">
<stop stop-color="#C4ECFA"/>
<stop offset="0.388" stop-color="#3073BD"/>
<stop offset="1" stop-color="#094A90"/>
</linearGradient>
<linearGradient id="paint1_linear_2:1428" x1="124.149" y1="5.65585" x2="8.73058" y2="5.65585" gradientUnits="userSpaceOnUse">
<stop stop-color="#1E5DB2"/>
<stop offset="0.43" stop-color="#286DBB"/>
<stop offset="1" stop-color="#1E5DB2"/>
</linearGradient>
<linearGradient id="paint2_linear_2:1428" x1="124.149" y1="5.65585" x2="8.73058" y2="5.65585" gradientUnits="userSpaceOnUse">
<stop stop-color="#1E5DB2"/>
<stop offset="0.436" stop-color="#3E93D0"/>
<stop offset="1" stop-color="#1E5DB2"/>
</linearGradient>
<radialGradient id="paint3_radial_2:1428" cx="0" cy="0" r="1" gradientUnits="userSpaceOnUse" gradientTransform="translate(66.8365 32.0476) rotate(90) scale(75.9851)">
<stop stop-color="#F7F9F9"/>
<stop offset="1" stop-color="#B6BFBD"/>
</radialGradient>
<clipPath id="clip0_2:1428">
<rect width="130.989" height="160" fill="white"/>
</clipPath>
</defs>
</svg>
