<svg width="131" height="160" viewBox="0 0 131 160" fill="none" xmlns="http://www.w3.org/2000/svg">
<g clip-path="url(#clip0_2:1438)">
<path d="M1.80879 64.5781C1.80879 103.013 30.5121 124.385 66.4417 160.081C103.202 124.657 131.07 103.664 131.07 64.5781C131.07 28.8857 102.134 -0.0505371 66.4417 -0.0505371C30.7494 -0.0505371 1.80879 28.8857 1.80879 64.5781Z" fill="url(#paint0_linear_2:1438)"/>
<path d="M66.4899 150.793C69.5888 147.831 72.6129 144.978 75.5623 142.191C104.824 114.574 124.151 96.3275 124.151 65.1275C124.151 33.3077 98.2656 7.4176 66.4415 7.4176C34.6173 7.4176 8.7316 33.3077 8.7316 65.1275C8.7316 95.0088 28.3492 113.932 55.4964 140.121C59.0657 143.563 62.7272 147.092 66.4899 150.793Z" fill="url(#paint1_linear_2:1438)"/>
<path d="M66.4899 150.793C69.5888 147.831 72.6129 144.978 75.5623 142.191C104.824 114.574 124.151 96.3275 124.151 65.1275C124.151 33.3077 98.2656 7.4176 66.4415 7.4176C34.6173 7.4176 8.7316 33.3077 8.7316 65.1275C8.7316 95.0088 28.3492 113.932 55.4964 140.121C59.0657 143.563 62.7272 147.092 66.4899 150.793Z" fill="url(#paint2_linear_2:1438)"/>
<path d="M15.9714 66.3802C15.9714 94.2527 38.5648 116.851 66.4417 116.851C94.3187 116.851 116.917 94.2527 116.917 66.3802C116.917 38.5033 94.3187 15.9055 66.4417 15.9055C38.5648 15.9055 15.9714 38.5033 15.9714 66.3802Z" fill="#005A82"/>
<path d="M22.6793 66.3803C22.6793 90.5473 42.2749 110.139 66.4419 110.139C90.609 110.139 110.2 90.5473 110.2 66.3803C110.2 42.2133 90.609 22.6177 66.4419 22.6177C42.2749 22.6177 22.6793 42.2133 22.6793 66.3803Z" fill="url(#paint3_radial_2:1438)"/>
<path d="M52.3959 88.4835H48.2244V61.6484C48.2244 59.4154 48.2948 57.3011 48.431 55.3099C48.0706 55.6703 47.6662 56.0484 47.2223 56.444C46.7739 56.8396 44.7299 58.5143 41.0904 61.4682L38.8223 58.5319L48.7915 50.8308H52.3959V88.4835Z" fill="black"/>
<path fill-rule="evenodd" clip-rule="evenodd" d="M91.4684 66.9011C91.4684 81.6352 85.7673 88.9978 74.3651 88.9978C72.3739 88.9978 70.7959 88.8264 69.6267 88.4835V84.8C71.0025 85.2483 72.5629 85.4725 74.3168 85.4725C78.4355 85.4725 81.5476 84.1978 83.653 81.6484C85.7541 79.0945 86.9014 75.1868 87.0904 69.9165H86.7827C85.8377 71.3407 84.5849 72.4264 83.0201 73.1736C81.4596 73.9209 79.697 74.2945 77.7409 74.2945C74.4091 74.2945 71.7673 73.2967 69.8069 71.3055C67.8508 69.3143 66.8706 66.5319 66.8706 62.9627C66.8706 59.0462 67.9651 55.9561 70.1541 53.688C72.3431 51.4242 75.2267 50.2902 78.7959 50.2902C81.3541 50.2902 83.5915 50.9451 85.508 52.2594C87.4201 53.5737 88.8926 55.4901 89.9212 58.0044C90.9542 60.5187 91.4684 63.4857 91.4684 66.9011ZM78.7959 53.9473C76.3431 53.9473 74.4443 54.7341 73.1036 56.3165C71.7673 57.8945 71.0948 60.0923 71.0948 62.9099C71.0948 65.3802 71.7145 67.3275 72.9497 68.7429C74.1849 70.1583 76.0662 70.8659 78.5893 70.8659C80.1541 70.8659 81.5915 70.5495 82.9058 69.9165C84.22 69.2791 85.253 68.4132 86.0091 67.3143C86.7651 66.2154 87.1431 65.0638 87.1431 63.8638C87.1431 62.0572 86.7915 60.3956 86.0838 58.8659C85.3805 57.3363 84.4003 56.1363 83.1387 55.2616C81.8728 54.3824 80.4267 53.9473 78.7959 53.9473Z" fill="black"/>
</g>
<defs>
<linearGradient id="paint0_linear_2:1438" x1="0.0514326" y1="4.07474" x2="0.0514326" y2="160.491" gradientUnits="userSpaceOnUse">
<stop stop-color="#C5EFFB"/>
<stop offset="0.388" stop-color="#42C8F2"/>
<stop offset="1" stop-color="#1B7DA6"/>
</linearGradient>
<linearGradient id="paint1_linear_2:1438" x1="124.152" y1="5.65804" x2="8.7316" y2="5.65804" gradientUnits="userSpaceOnUse">
<stop stop-color="#28A1CE"/>
<stop offset="0.43" stop-color="#33BAE3"/>
<stop offset="1" stop-color="#28A1CE"/>
</linearGradient>
<linearGradient id="paint2_linear_2:1438" x1="124.152" y1="5.65804" x2="8.7316" y2="5.65804" gradientUnits="userSpaceOnUse">
<stop stop-color="#2494CE"/>
<stop offset="0.436" stop-color="#41CDEC"/>
<stop offset="1" stop-color="#2494CE"/>
</linearGradient>
<radialGradient id="paint3_radial_2:1438" cx="0" cy="0" r="1" gradientUnits="userSpaceOnUse" gradientTransform="translate(66.8367 32.0498) rotate(90) scale(75.9851)">
<stop stop-color="#F7F9F9"/>
<stop offset="1" stop-color="#B6BFBD"/>
</radialGradient>
<clipPath id="clip0_2:1438">
<rect width="130.989" height="160" fill="white"/>
</clipPath>
</defs>
</svg>
