<svg width="131" height="160" viewBox="0 0 131 160" fill="none" xmlns="http://www.w3.org/2000/svg">
<g clip-path="url(#clip0_2:1448)">
<path d="M1.80879 64.5781C1.80879 103.013 30.5077 124.385 66.4373 160.081C103.202 124.657 131.07 103.664 131.07 64.5781C131.07 28.8857 102.13 -0.0505371 66.4373 -0.0505371C30.745 -0.0505371 1.80879 28.8857 1.80879 64.5781Z" fill="url(#paint0_linear_2:1448)"/>
<path d="M66.4854 150.793C69.5843 147.831 72.6085 144.978 75.5579 142.191C104.819 114.574 124.147 96.3275 124.147 65.1275C124.147 33.3077 98.2612 7.4176 66.4371 7.4176C34.6129 7.4176 8.72721 33.3077 8.72721 65.1275C8.72721 95.0088 28.3448 113.932 55.4921 140.121C59.0613 143.563 62.7228 147.092 66.4854 150.793Z" fill="url(#paint1_linear_2:1448)"/>
<path d="M66.4854 150.793C69.5843 147.831 72.6085 144.978 75.5579 142.191C104.819 114.574 124.147 96.3275 124.147 65.1275C124.147 33.3077 98.2612 7.4176 66.4371 7.4176C34.6129 7.4176 8.72721 33.3077 8.72721 65.1275C8.72721 95.0088 28.3448 113.932 55.4921 140.121C59.0613 143.563 62.7228 147.092 66.4854 150.793Z" fill="url(#paint2_linear_2:1448)"/>
<path d="M15.967 66.3802C15.967 94.2527 38.5648 116.851 66.4374 116.851C94.3143 116.851 116.912 94.2527 116.912 66.3802C116.912 38.5033 94.3143 15.9055 66.4374 15.9055C38.5648 15.9055 15.967 38.5033 15.967 66.3802Z" fill="#027B8C"/>
<path d="M22.6793 66.3803C22.6793 90.5473 42.2749 110.139 66.4375 110.139C90.6046 110.139 110.2 90.5473 110.2 66.3803C110.2 42.2133 90.6046 22.6177 66.4375 22.6177C42.2749 22.6177 22.6793 42.2133 22.6793 66.3803Z" fill="url(#paint3_radial_2:1448)"/>
<path d="M63.1604 85.9162H38.4087V82.2327L48.3252 72.2635C51.345 69.2086 53.3362 67.0284 54.2988 65.7229C55.2615 64.4174 55.9824 63.147 56.4615 61.9119C56.945 60.6767 57.1823 59.3449 57.1823 57.9207C57.1823 55.9119 56.5757 54.3163 55.3538 53.1427C54.1362 51.9646 52.4439 51.3756 50.2812 51.3756C48.7164 51.3756 47.2395 51.635 45.8373 52.1493C44.4395 52.6635 42.879 53.5998 41.1647 54.958L38.8966 52.0482C42.3647 49.1603 46.1406 47.7185 50.2285 47.7185C53.7669 47.7185 56.5406 48.624 58.5494 50.435C60.5582 52.2503 61.5604 54.6811 61.5604 57.7404C61.5604 60.1273 60.8922 62.4877 59.5515 64.8218C58.2153 67.1558 55.7054 70.1097 52.0307 73.6789L43.7889 81.7404V81.9471H63.1604V85.9162Z" fill="black"/>
<path fill-rule="evenodd" clip-rule="evenodd" d="M93.5251 67.0372C93.5251 73.5427 92.4966 78.4043 90.4482 81.6131C88.3955 84.8263 85.257 86.4306 81.0328 86.4306C76.9801 86.4306 73.8988 84.7867 71.7845 81.4988C69.6746 78.2109 68.6196 73.3889 68.6196 67.0372C68.6196 60.479 69.6394 55.6087 71.6834 52.435C73.7274 49.257 76.8438 47.6702 81.0328 47.6702C85.1207 47.6702 88.224 49.3229 90.3427 52.6372C92.4658 55.9515 93.5251 60.7515 93.5251 67.0372ZM72.9449 67.0372C72.9449 72.5142 73.5911 76.501 74.879 78.9977C76.1669 81.4988 78.2152 82.7471 81.0328 82.7471C83.8812 82.7471 85.9471 81.4812 87.2263 78.9493C88.5054 76.4174 89.1471 72.4438 89.1471 67.0372C89.1471 61.6262 88.5054 57.6658 87.2263 55.1515C85.9471 52.6372 83.8812 51.3757 81.0328 51.3757C78.2152 51.3757 76.1669 52.6152 74.879 55.0988C73.5911 57.5823 72.9449 61.5603 72.9449 67.0372Z" fill="black"/>
</g>
<defs>
<linearGradient id="paint0_linear_2:1448" x1="0.0514326" y1="4.07474" x2="0.0514326" y2="160.491" gradientUnits="userSpaceOnUse">
<stop stop-color="#C6EFF8"/>
<stop offset="0.388" stop-color="#54D1E9"/>
<stop offset="1" stop-color="#2392A4"/>
</linearGradient>
<linearGradient id="paint1_linear_2:1448" x1="124.148" y1="5.65804" x2="8.72721" y2="5.65804" gradientUnits="userSpaceOnUse">
<stop stop-color="#32B9CD"/>
<stop offset="0.43" stop-color="#43CBDC"/>
<stop offset="1" stop-color="#32B9CD"/>
</linearGradient>
<linearGradient id="paint2_linear_2:1448" x1="124.148" y1="5.65804" x2="8.72721" y2="5.65804" gradientUnits="userSpaceOnUse">
<stop stop-color="#32B9CD"/>
<stop offset="0.436" stop-color="#5AD0DC"/>
<stop offset="1" stop-color="#32B9CD"/>
</linearGradient>
<radialGradient id="paint3_radial_2:1448" cx="0" cy="0" r="1" gradientUnits="userSpaceOnUse" gradientTransform="translate(66.8362 32.0498) rotate(90) scale(75.9855)">
<stop stop-color="#F7F9F9"/>
<stop offset="1" stop-color="#B6BFBD"/>
</radialGradient>
<clipPath id="clip0_2:1448">
<rect width="130.989" height="160" fill="white"/>
</clipPath>
</defs>
</svg>
