<svg width="131" height="160" viewBox="0 0 131 160" fill="none" xmlns="http://www.w3.org/2000/svg">
<g clip-path="url(#clip0_2:1458)">
<path d="M1.80879 64.5781C1.80879 103.013 30.5077 124.385 66.4373 160.081C103.202 124.657 131.07 103.664 131.07 64.5781C131.07 28.8857 102.13 -0.0505371 66.4373 -0.0505371C30.745 -0.0505371 1.80879 28.8857 1.80879 64.5781Z" fill="url(#paint0_linear_2:1458)"/>
<path d="M66.4854 150.793C69.5843 147.831 72.6085 144.978 75.5579 142.191C104.819 114.574 124.147 96.3275 124.147 65.1275C124.147 33.3077 98.2612 7.4176 66.4371 7.4176C34.6129 7.4176 8.7272 33.3077 8.7272 65.1275C8.7272 95.0088 28.3448 113.932 55.492 140.121C59.0613 143.563 62.7228 147.092 66.4854 150.793Z" fill="url(#paint1_linear_2:1458)"/>
<path d="M66.4854 150.793C69.5843 147.831 72.6085 144.978 75.5579 142.191C104.819 114.574 124.147 96.3275 124.147 65.1275C124.147 33.3077 98.2612 7.4176 66.4371 7.4176C34.6129 7.4176 8.7272 33.3077 8.7272 65.1275C8.7272 95.0088 28.3448 113.932 55.492 140.121C59.0613 143.563 62.7228 147.092 66.4854 150.793Z" fill="url(#paint2_linear_2:1458)"/>
<path d="M15.9671 66.3802C15.9671 94.2527 38.5648 116.851 66.4374 116.851C94.3143 116.851 116.912 94.2527 116.912 66.3802C116.912 38.5033 94.3143 15.9055 66.4374 15.9055C38.5648 15.9055 15.9671 38.5033 15.9671 66.3802Z" fill="#027B8C" fill-opacity="0.67"/>
<path d="M22.6788 66.3803C22.6788 90.5473 42.2744 110.139 66.437 110.139C90.6041 110.139 110.2 90.5473 110.2 66.3803C110.2 42.2133 90.6041 22.6177 66.437 22.6177C42.2744 22.6177 22.6788 42.2133 22.6788 66.3803Z" fill="url(#paint3_radial_2:1458)"/>
<path d="M65.7976 85.9162H41.0459V82.2327L50.9624 72.2635C53.9822 69.2086 55.9734 67.0284 56.936 65.7229C57.8986 64.4174 58.6195 63.147 59.0987 61.9119C59.5822 60.6767 59.8195 59.3449 59.8195 57.9207C59.8195 55.9119 59.2129 54.3163 57.991 53.1427C56.7734 51.9646 55.0811 51.3756 52.9184 51.3756C51.3536 51.3756 49.8767 51.635 48.4745 52.1493C47.0767 52.6635 45.5162 53.5998 43.8019 54.9581L41.5338 52.0482C45.0019 49.1603 48.7778 47.7185 52.8657 47.7185C56.4041 47.7185 59.1778 48.624 61.1866 50.435C63.1954 52.2503 64.1976 54.6811 64.1976 57.7404C64.1976 60.1273 63.5294 62.4877 62.1887 64.8218C60.8525 67.1558 58.3426 70.1097 54.6679 73.6789L46.4261 81.7404V81.9471H65.7976V85.9162Z" fill="black"/>
<path d="M87.4506 85.3977H83.2747V58.5582C83.2747 56.3252 83.3451 54.2153 83.4813 52.2241C83.1209 52.5845 82.7165 52.9625 82.2725 53.3581C81.8242 53.7537 79.7803 55.4241 76.1407 58.3779L73.877 55.4417L83.8418 47.7406H87.4506V85.3977Z" fill="black"/>
</g>
<defs>
<linearGradient id="paint0_linear_2:1458" x1="0.0514326" y1="4.07474" x2="0.0514326" y2="160.491" gradientUnits="userSpaceOnUse">
<stop stop-color="#C6EFF8"/>
<stop offset="0.388" stop-color="#54E0E9"/>
<stop offset="1" stop-color="#23A49C"/>
</linearGradient>
<linearGradient id="paint1_linear_2:1458" x1="124.148" y1="5.65804" x2="8.7272" y2="5.65804" gradientUnits="userSpaceOnUse">
<stop stop-color="#32B9CD"/>
<stop offset="0.43" stop-color="#43CBDC"/>
<stop offset="1" stop-color="#32B9CD"/>
</linearGradient>
<linearGradient id="paint2_linear_2:1458" x1="124.148" y1="5.65804" x2="8.7272" y2="5.65804" gradientUnits="userSpaceOnUse">
<stop stop-color="#3FD7CE"/>
<stop offset="0.436" stop-color="#62D1CB"/>
<stop offset="1" stop-color="#32C4CD"/>
</linearGradient>
<radialGradient id="paint3_radial_2:1458" cx="0" cy="0" r="1" gradientUnits="userSpaceOnUse" gradientTransform="translate(66.8358 32.0498) rotate(90) scale(75.9855)">
<stop stop-color="#F7F9F9"/>
<stop offset="1" stop-color="#B6BFBD"/>
</radialGradient>
<clipPath id="clip0_2:1458">
<rect width="130.989" height="160" fill="white"/>
</clipPath>
</defs>
</svg>
