<svg width="131" height="160" viewBox="0 0 131 160" fill="none" xmlns="http://www.w3.org/2000/svg">
<path d="M66.4879 150.787C69.5868 147.828 72.611 144.971 75.5604 142.189C104.822 114.567 124.149 96.3252 124.149 65.1208C124.149 33.301 98.2593 7.41089 66.4395 7.41089C34.6154 7.41089 8.72964 33.301 8.72964 65.1208C8.72964 95.0065 28.3428 113.925 55.4901 140.114C59.0593 143.556 62.7208 147.09 66.4879 150.787Z" fill="#FF8E28"/>
<path d="M15.9651 66.3781C15.9651 94.2506 38.5673 116.848 66.4398 116.848C94.3167 116.848 116.91 94.2506 116.91 66.3781C116.91 38.5011 94.3167 15.9033 66.4398 15.9033C38.5673 15.9033 15.9651 38.5011 15.9651 66.3781Z" fill="#BE5A00"/>
<path d="M22.6817 66.3779C22.6817 90.5405 42.273 110.136 66.44 110.136C90.607 110.136 110.203 90.5405 110.203 66.3779C110.203 42.2109 90.607 22.6152 66.44 22.6152C42.273 22.6152 22.6817 42.2109 22.6817 66.3779Z" fill="#E0E0E0"/>
<path fill-rule="evenodd" clip-rule="evenodd" d="M63.3142 65.7669C63.3142 72.2768 62.2856 77.1339 60.2329 80.3471C58.1845 83.5559 55.046 85.1647 50.8219 85.1647C46.7691 85.1647 43.6878 83.5208 41.5735 80.2284C39.4636 76.9449 38.4087 72.123 38.4087 65.7669C38.4087 59.2087 39.4285 54.3427 41.4724 51.1647C43.5164 47.9911 46.6329 46.3999 50.8219 46.3999C54.9098 46.3999 58.0131 48.057 60.1318 51.3713C62.2504 54.6856 63.3142 59.4856 63.3142 65.7669ZM42.734 65.7669C42.734 71.2482 43.3801 75.235 44.6636 77.7317C45.9515 80.2284 48.0043 81.4812 50.8219 81.4812C53.6702 81.4812 55.7361 80.2153 57.0153 77.679C58.2944 75.1471 58.9362 71.1779 58.9362 65.7669C58.9362 60.3603 58.2944 56.3999 57.0153 53.8812C55.7361 51.3669 53.6702 50.1098 50.8219 50.1098C48.0043 50.1098 45.9515 51.3493 44.6636 53.8329C43.3801 56.312 42.734 60.29 42.734 65.7669Z" fill="black"/>
<path fill-rule="evenodd" clip-rule="evenodd" d="M80.9801 46.4526C84.413 46.4526 87.1383 47.2526 89.1471 48.8482C91.1559 50.4439 92.1581 52.6504 92.1581 55.468C92.1581 57.323 91.5823 59.0109 90.435 60.5405C89.2834 62.0702 87.446 63.4592 84.9229 64.712C87.9779 66.1713 90.1493 67.7054 91.4372 69.3098C92.7251 70.9186 93.3713 72.7735 93.3713 74.8878C93.3713 78.0131 92.2812 80.5054 90.0965 82.3691C87.9163 84.2328 84.9317 85.1647 81.1339 85.1647C77.1163 85.1647 74.0262 84.2856 71.8636 82.523C69.7009 80.7647 68.6196 78.268 68.6196 75.0416C68.6196 70.7296 71.2438 67.3757 76.5009 64.9713C74.1317 63.6307 72.4306 62.1845 71.4021 60.6285C70.3691 59.0768 69.8548 57.3362 69.8548 55.4153C69.8548 52.6856 70.8614 50.5098 72.879 48.8878C74.8966 47.2614 77.5998 46.4526 80.9801 46.4526ZM72.8438 75.1427C72.8438 77.2043 73.5603 78.8087 74.9933 79.9603C76.4262 81.112 78.4394 81.6878 81.0328 81.6878C83.5911 81.6878 85.5823 81.0856 87.0064 79.8812C88.435 78.6812 89.1471 77.0329 89.1471 74.9362C89.1471 73.2702 88.4746 71.7933 87.1383 70.4966C85.7977 69.1999 83.4636 67.9427 80.1317 66.7208C77.5735 67.8197 75.7185 69.0372 74.5669 70.3647C73.4196 71.6966 72.8438 73.2878 72.8438 75.1427ZM80.9273 49.9295C78.7823 49.9295 77.0988 50.4438 75.8812 51.4724C74.6636 52.5054 74.0526 53.8768 74.0526 55.5955C74.0526 57.1735 74.5581 58.5318 75.5735 59.6658C76.5845 60.7999 78.457 61.9296 81.1867 63.0636C83.6438 62.035 85.3801 60.9274 86.4043 59.7405C87.424 58.5581 87.9339 57.1735 87.9339 55.5955C87.9339 53.8592 87.3141 52.4834 86.0658 51.4636C84.8218 50.4394 83.1119 49.9295 80.9273 49.9295Z" fill="black"/>
</svg>
