<svg width="131" height="160" viewBox="0 0 131 160" fill="none" xmlns="http://www.w3.org/2000/svg">
<path d="M66.4898 150.789C69.5887 147.831 72.6129 144.974 75.5623 142.191C104.819 114.569 124.151 96.3274 124.151 65.123C124.151 33.3032 98.2612 7.41309 66.4415 7.41309C34.6173 7.41309 8.73155 33.3032 8.73155 65.123C8.73155 95.0087 28.3447 113.927 55.492 140.116C59.0656 143.558 62.7228 147.092 66.4898 150.789Z" fill="#F83118"/>
<path d="M15.9671 66.38C15.9671 94.2525 38.5649 116.85 66.4418 116.85C94.3187 116.85 116.917 94.2525 116.917 66.38C116.917 38.5031 94.3187 15.9053 66.4418 15.9053C38.5649 15.9053 15.9671 38.5031 15.9671 66.38Z" fill="#A61600"/>
<path d="M22.6788 66.3801C22.6788 90.5427 42.2744 110.138 66.4414 110.138C90.6041 110.138 110.2 90.5427 110.2 66.3801C110.2 42.2131 90.6041 22.6174 66.4414 22.6174C42.2744 22.6174 22.6788 42.2131 22.6788 66.3801Z" fill="#E0E0E0"/>
<path d="M53.8461 89.3495H49.6747V62.51C49.6747 60.2814 49.7406 58.1671 49.8768 56.1759C49.5164 56.5364 49.1164 56.9144 48.6681 57.31C48.2197 57.7056 46.1801 59.3759 42.5406 62.3298L40.2725 59.3935L50.2373 51.6924H53.8461V89.3495Z" fill="black"/>
<path fill-rule="evenodd" clip-rule="evenodd" d="M93.1208 70.4703C93.1208 76.9758 92.0966 81.8373 90.0439 85.0461C87.9911 88.2593 84.8527 89.8637 80.6329 89.8637C76.5802 89.8637 73.4944 88.2197 71.3845 84.9318C69.2747 81.6439 68.2153 76.822 68.2153 70.4703C68.2153 63.9121 69.2395 59.0417 71.2835 55.8681C73.323 52.6901 76.4395 51.1033 80.6329 51.1033C84.7164 51.1033 87.8197 52.7604 89.9428 56.0703C92.0615 59.3846 93.1208 64.1846 93.1208 70.4703ZM72.545 70.4703C72.545 75.9473 73.1868 79.9341 74.4747 82.4352C75.7626 84.9319 77.8153 86.1802 80.6329 86.1802C83.4813 86.1802 85.5472 84.9143 86.8263 82.3824C88.1054 79.8505 88.7428 75.8769 88.7428 70.4703C88.7428 65.0593 88.1054 61.0989 86.8263 58.5846C85.5472 56.0703 83.4813 54.8088 80.6329 54.8088C77.8153 54.8088 75.7626 56.0527 74.4747 58.5319C73.1868 61.0154 72.545 64.9934 72.545 70.4703Z" fill="black"/>
</svg>
