<svg width="131" height="160" viewBox="0 0 131 160" fill="none" xmlns="http://www.w3.org/2000/svg">
<path d="M66.4884 150.791C69.5917 147.829 72.6114 144.971 75.5653 142.189C104.822 114.567 124.15 96.3252 124.15 65.1208C124.15 33.301 98.2642 7.41089 66.44 7.41089C34.6202 7.41089 8.73011 33.301 8.73011 65.1208C8.73011 95.0065 28.3477 113.93 55.495 140.119C59.0642 143.556 62.7257 147.09 66.4884 150.791Z" fill="#F82D2F"/>
<path d="M15.9695 66.3781C15.9695 94.2506 38.5673 116.848 66.4398 116.848C94.3167 116.848 116.915 94.2506 116.915 66.3781C116.915 38.5011 94.3167 15.9033 66.4398 15.9033C38.5673 15.9033 15.9695 38.5011 15.9695 66.3781Z" fill="#A60027"/>
<path d="M22.6818 66.3779C22.6818 90.5449 42.2774 110.136 66.4444 110.136C90.6114 110.136 110.203 90.5449 110.203 66.3779C110.203 42.2108 90.6114 22.6196 66.4444 22.6196C42.2774 22.6196 22.6818 42.2108 22.6818 66.3779Z" fill="#E0E0E0"/>
<path d="M55.6923 83.2045H51.5209V56.365C51.5209 54.1364 51.5868 52.0221 51.723 50.0309C51.3626 50.3913 50.9626 50.7693 50.5142 51.1649C50.0703 51.5606 48.0263 53.2309 44.3868 56.1847L42.1187 53.2485L52.0879 45.5474H55.6923V83.2045Z" fill="black"/>
<path d="M85.8505 83.2045H81.6791V56.365C81.6791 54.1364 81.7494 52.0221 81.8856 50.0309C81.5252 50.3913 81.1208 50.7693 80.6725 51.1649C80.2285 51.5606 78.1846 53.2309 74.545 56.1847L72.2769 53.2485L82.2461 45.5474H85.8505V83.2045Z" fill="black"/>
</svg>
