<svg width="131" height="160" viewBox="0 0 131 160" fill="none" xmlns="http://www.w3.org/2000/svg">
<path d="M66.4859 150.793C69.5892 147.831 72.6134 144.974 75.5628 142.191C104.824 114.569 124.147 96.3274 124.147 65.123C124.147 33.3032 98.2617 7.41309 66.4419 7.41309C34.6178 7.41309 8.73204 33.3032 8.73204 65.123C8.73204 95.0087 28.3452 113.932 55.4925 140.121C59.0617 143.558 62.7233 147.092 66.4859 150.793Z" fill="#863FA1"/>
<path d="M15.9676 66.3803C15.9676 94.2528 38.5654 116.851 66.4423 116.851C94.3192 116.851 116.913 94.2528 116.913 66.3803C116.913 38.5033 94.3192 15.9055 66.4423 15.9055C38.5654 15.9055 15.9676 38.5033 15.9676 66.3803Z" fill="#74008C"/>
<path d="M22.6798 66.3801C22.6798 90.5471 42.2754 110.138 66.4424 110.138C90.6095 110.138 110.201 90.5471 110.201 66.3801C110.201 42.213 90.6095 22.6218 66.4424 22.6218C42.2754 22.6218 22.6798 42.213 22.6798 66.3801Z" fill="#E0E0E0"/>
<path d="M50.9144 88.3559H46.743V61.5164C46.743 59.2878 46.8133 57.1735 46.9496 55.1823C46.5892 55.5427 46.1848 55.9207 45.7408 56.3163C45.2925 56.7119 43.2485 58.3867 39.6089 61.3361L37.3452 58.3998L47.31 50.7031H50.9144V88.3559Z" fill="black"/>
<path fill-rule="evenodd" clip-rule="evenodd" d="M91.7627 79.701H86.1759V88.3559H82.0792V79.701H63.7671V75.9691L81.644 50.4966H86.1759V75.8109H91.7627V79.701ZM82.0792 75.8109V63.2966C82.0792 60.8394 82.1671 58.0658 82.3385 54.9757H82.1319C81.3099 56.6241 80.5363 57.9911 79.8154 59.0724L68.044 75.8109H82.0792Z" fill="black"/>
</svg>
