<svg width="131" height="160" viewBox="0 0 131 160" fill="none" xmlns="http://www.w3.org/2000/svg">
<path d="M66.4903 150.793C69.5892 147.831 72.6134 144.974 75.5585 142.191C104.82 114.569 124.152 96.3274 124.152 65.123C124.152 33.3032 98.2618 7.41309 66.4376 7.41748C34.6178 7.41748 8.73209 33.3032 8.73209 65.123C8.73209 95.0087 28.3453 113.932 55.4925 140.121C59.0618 143.558 62.7233 147.092 66.4903 150.793Z" fill="#51226D"/>
<path d="M15.967 66.38C15.967 94.2525 38.5649 116.85 66.4374 116.85C94.3143 116.85 116.912 94.2525 116.912 66.38C116.912 38.5031 94.3143 15.9053 66.4374 15.9053C38.5649 15.9053 15.967 38.5031 15.967 66.38Z" fill="#450052"/>
<path d="M22.6793 66.3801C22.6793 90.5471 42.2749 110.138 66.4376 110.138C90.6046 110.138 110.2 90.5471 110.2 66.3801C110.2 42.213 90.6046 22.6218 66.4376 22.6218C42.2749 22.6218 22.6793 42.213 22.6793 66.3801Z" fill="#E0E0E0"/>
<path d="M51.8461 88.4747H47.6703V61.6352C47.6703 59.4022 47.7406 57.2923 47.8768 55.3011C47.5164 55.6616 47.112 56.0396 46.6681 56.4352C46.2197 56.8308 44.1758 58.5011 40.5362 61.455L38.2725 58.5187L48.2373 50.8176H51.8461V88.4747Z" fill="black"/>
<path d="M77.9338 65.4726C81.903 65.4726 85.0195 66.4572 87.2964 68.422C89.5734 70.3912 90.7074 73.0813 90.7074 76.4967C90.7074 80.3956 89.4679 83.4505 86.9888 85.6659C84.5053 87.8813 81.0855 88.989 76.725 88.989C72.4833 88.989 69.2481 88.3121 67.0151 86.9539V82.8352C68.2151 83.6044 69.7096 84.211 71.4943 84.6506C73.2833 85.0857 75.0415 85.3055 76.7778 85.3055C79.7975 85.3055 82.1448 84.5934 83.8195 83.1693C85.4943 81.7451 86.3294 79.6835 86.3294 76.9846C86.3294 71.7319 83.1118 69.1077 76.6723 69.1077C75.0415 69.1077 72.8613 69.3539 70.1316 69.8506L67.9162 68.4352L69.3316 50.8176H88.0569V54.7605H72.9887L72.0349 66.0659C74.0129 65.6703 75.9778 65.4726 77.9338 65.4726Z" fill="black"/>
</svg>
