<svg width="131" height="160" viewBox="0 0 131 160" fill="none" xmlns="http://www.w3.org/2000/svg">
<path d="M66.4879 150.791C69.5912 147.828 72.6109 144.976 75.5604 142.189C104.822 114.571 124.149 96.3252 124.149 65.1252C124.149 33.301 98.2637 7.41528 66.4395 7.41528C34.6197 7.41528 8.72963 33.3054 8.72963 65.1252C8.72963 95.0065 28.3472 113.93 55.4945 140.119C59.0637 143.56 62.7252 147.09 66.4879 150.791Z" fill="#213C9F"/>
<path d="M15.969 66.378C15.969 94.2505 38.5668 116.848 66.4393 116.848C94.3163 116.848 116.914 94.2505 116.914 66.378C116.914 38.5011 94.3163 15.9033 66.4393 15.9033C38.5668 15.9033 15.969 38.5011 15.969 66.378Z" fill="#1A008C"/>
<path d="M22.6813 66.3778C22.6813 90.5449 42.2769 110.136 66.4395 110.136C90.6065 110.136 110.198 90.5449 110.198 66.3778C110.198 42.2108 90.6065 22.6152 66.4395 22.6152C42.2769 22.6152 22.6813 42.2108 22.6813 66.3778Z" fill="#E0E0E0"/>
<path d="M54.6195 86.2153H50.4437V59.3757C50.4437 57.1471 50.514 55.0328 50.6503 53.0416C50.2898 53.4021 49.8854 53.7801 49.4415 54.1757C48.9931 54.5713 46.9492 56.246 43.3096 59.1955L41.0459 56.2592L51.0107 48.5625H54.6195V86.2153Z" fill="black"/>
<path d="M73.7009 86.2153L89.3097 52.501H68.7822V48.5625H93.8416V51.9867L78.4438 86.2153H73.7009Z" fill="black"/>
</svg>
