<svg width="131" height="160" viewBox="0 0 131 160" fill="none" xmlns="http://www.w3.org/2000/svg">
<path d="M66.4879 150.791C69.5868 147.828 72.611 144.976 75.5604 142.189C104.822 114.571 124.149 96.3252 124.149 65.1252C124.149 33.3054 98.2593 7.41528 66.4395 7.41528C34.6198 7.41528 8.72965 33.3054 8.72965 65.1252C8.72965 95.0065 28.3428 113.93 55.4901 140.119C59.0593 143.56 62.7208 147.09 66.4879 150.791Z" fill="#1E5DB2"/>
<path d="M15.9646 66.378C15.9646 94.2505 38.5668 116.848 66.4393 116.848C94.3163 116.848 116.91 94.2505 116.91 66.378C116.91 38.5011 94.3163 15.9033 66.4393 15.9033C38.5668 15.9033 15.9646 38.5011 15.9646 66.378Z" fill="#00468C"/>
<path d="M22.6813 66.3778C22.6813 90.5449 42.2725 110.136 66.4395 110.136C90.6066 110.136 110.198 90.5449 110.198 66.3778C110.198 42.2108 90.6066 22.6152 66.4395 22.6152C42.2725 22.6152 22.6813 42.2108 22.6813 66.3778Z" fill="#E0E0E0"/>
<path d="M49.7406 86.1406H45.5648V59.3054C45.5648 57.0724 45.6351 54.9625 45.7714 52.9669C45.4109 53.3318 45.0065 53.7054 44.5626 54.101C44.1142 54.4966 42.0747 56.1713 38.4307 59.1252L36.167 56.1889L46.1318 48.4878H49.7406V86.1406Z" fill="black"/>
<path fill-rule="evenodd" clip-rule="evenodd" d="M76.523 47.9473C79.9604 47.9473 82.6813 48.7473 84.6901 50.3429C86.6989 51.9385 87.7011 54.1451 87.7011 56.9627C87.7011 58.8176 87.1296 60.5055 85.978 62.0352C84.8263 63.5648 82.989 64.9539 80.4659 66.2066C83.5209 67.6659 85.6923 69.2 86.9802 70.8044C88.2681 72.4088 88.9143 74.2681 88.9143 76.3824C88.9143 79.5077 87.8241 82 85.6439 83.8638C83.4637 85.7275 80.4747 86.6594 76.6813 86.6594C72.6637 86.6594 69.5692 85.7758 67.4066 84.0176C65.2439 82.2594 64.1626 79.7626 64.1626 76.5363C64.1626 72.2242 66.7912 68.8703 72.0439 66.466C69.6747 65.1253 67.9736 63.6791 66.9451 62.1231C65.9121 60.5714 65.3978 58.8308 65.3978 56.9099C65.3978 54.1802 66.4088 52.0044 68.4264 50.3824C70.444 48.756 73.1428 47.9473 76.523 47.9473ZM68.3868 76.6374C68.3868 78.6989 69.1033 80.3033 70.5362 81.455C71.9692 82.6066 73.9824 83.1825 76.5758 83.1825C79.134 83.1825 81.1253 82.5802 82.5539 81.3758C83.978 80.1758 84.6901 78.5275 84.6901 76.4308C84.6901 74.7692 84.0176 73.2879 82.6813 71.9912C81.3406 70.6945 79.0066 69.4374 75.6747 68.2154C73.1165 69.3143 71.2615 70.5319 70.1099 71.8594C68.9626 73.1912 68.3868 74.7824 68.3868 76.6374ZM76.4747 51.4242C74.3252 51.4242 72.6461 51.9385 71.4241 52.967C70.2066 54 69.5956 55.3758 69.5956 57.0901C69.5956 58.6725 70.1011 60.0264 71.1165 61.1605C72.1275 62.2945 74 63.4242 76.7297 64.5582C79.1868 63.5297 80.9231 62.422 81.9473 61.2352C82.967 60.0528 83.4769 58.6725 83.4769 57.0901C83.4769 55.3539 82.8571 53.978 81.6132 52.9583C80.3648 51.9341 78.6549 51.4242 76.4747 51.4242Z" fill="black"/>
</svg>
